{
  "source": "C:\\Users\\Peter\\Desktop\\stuff\\MIUN\\quantitative_research\\video_compression\\videos\\UVG\\YachtRide_1920x1080_120fps_420_8bit_YUV.y4m",
  "output": "C:\\Users\\Peter\\Desktop\\stuff\\MIUN\\quantitative_research\\video_compression\\compressed_videos\\UVG\\hevc\\2\\YachtRide_1920x1080_120fps_420_8bit_YUV_hevc.mp4",
  "codec": "hevc",
  "ok": "[yuv4mpegpipe @ 00000213b68766c0] Stream #0: not enough frames to estimate rate; consider increasing probesize\nInput #0, yuv4mpegpipe, from 'C:\\Users\\Peter\\Desktop\\stuff\\MIUN\\quantitative_research\\video_compression\\videos\\UVG\\YachtRide_1920x1080_120fps_420_8bit_YUV.y4m':\n  Duration: 00:00:05.00, start: 0.000000, bitrate: 2985989 kb/s\n  Stream #0:0: Video: rawvideo (I420 / 0x30323449), yuv420p(progressive), 1920x1080, 120 fps, 120 tbr, 120 tbn\n[out#0/mp4 @ 00000213b687b640] Codec AVOption b:a (set bitrate (in bits/s)) has not been used for any stream. The most likely reason is either wrong type (e.g. a video option with no video streams) or that it is a private option of some decoder which was not actually used for any stream.\nStream mapping:\n  Stream #0:0 -> #0:0 (rawvideo (native) -> hevc (libx265))\nPress [q] to stop, [?] for help\n[libx265 @ 00000213b687cac0] Unknown option: \"aq-mode.\nx265 [info]: HEVC encoder version 4.1+190-8f11c33ac\nx265 [info]: build info [Windows][GCC 15.1.0][64 bit] 10bit\nx265 [info]: using cpu capabilities: MMX2 SSE2Fast LZCNT SSSE3 SSE4.2 AVX FMA3 BMI2 AVX2\nx265 [info]: Main 10 profile, Level-5 (Main tier)\nx265 [info]: Thread pool created using 12 threads\nx265 [info]: Slices                              : 1\nx265 [info]: frame threads / pool features       : 3 / wpp(17 rows)\nx265 [info]: Coding QT: max CU size, min CU size : 64 / 8\nx265 [info]: Residual QT: max TU size, max depth : 32 / 1 inter / 1 intra\nx265 [info]: ME / range / subpel / merge         : star / 57 / 3 / 3\nx265 [info]: Keyframe min / max / scenecut / bias  : 25 / 250 / 40 / 5.00 \nx265 [info]: Lookahead / bframes / badapt        : 25 / 4 / 2\nx265 [info]: b-pyramid / weightp / weightb       : 1 / 1 / 0\nx265 [info]: References / ref-limit  cu / depth  : 4 / on / on\nx265 [info]: AQ: mode / str / qg-size / cu-tree  : 2 / 1.0 / 32 / 1\nx265 [info]: Rate Control / qCompress            : ABR-2000 kbps / 0.60\nx265 [info]: VBV/HRD buffer / max-rate / init    : 2000 / 2000 / 0.750\nx265 [info]: tools: rect limit-modes rd=4 psy-rd=2.00 rdoq=2 psy-rdoq=1.00\nx265 [info]: tools: rskip mode=1 signhide tmvp strong-intra-smoothing lslices=4\nx265 [info]: tools: deblock sao dhdr10-info\nOutput #0, mp4, to 'C:\\Users\\Peter\\Desktop\\stuff\\MIUN\\quantitative_research\\video_compression\\compressed_videos\\UVG\\hevc\\2\\YachtRide_1920x1080_120fps_420_8bit_YUV_hevc.mp4':\n  Metadata:\n    encoder         : Lavf62.3.100\n  Stream #0:0: Video: hevc (hev1 / 0x31766568), yuv420p10le(tv, progressive), 1920x1080, q=2-31, 2000 kb/s, 120 fps, 15360 tbn\n    Metadata:\n      encoder         : Lavc62.11.100 libx265\n    Side data:\n      cpb: bitrate max/min/avg: 2000000/0/2000000 buffer size: 2000000 vbv_delay: N/A\nframe=    0 fps=0.0 q=0.0 size=       0KiB time=N/A bitrate=N/A speed=N/A elapsed=0:00:00.52    \nframe=    0 fps=0.0 q=0.0 size=       0KiB time=N/A bitrate=N/A speed=N/A elapsed=0:00:01.02    \nframe=    0 fps=0.0 q=0.0 size=       0KiB time=N/A bitrate=N/A speed=N/A elapsed=0:00:01.54    \nframe=    0 fps=0.0 q=0.0 size=       0KiB time=N/A bitrate=N/A speed=N/A elapsed=0:00:02.06    \nframe=    0 fps=0.0 q=0.0 size=       0KiB time=N/A bitrate=N/A speed=N/A elapsed=0:00:02.58    \nframe=    0 fps=0.0 q=0.0 size=       0KiB time=N/A bitrate=N/A speed=N/A elapsed=0:00:03.09    \nframe=    0 fps=0.0 q=0.0 size=       0KiB time=N/A bitrate=N/A speed=N/A elapsed=0:00:03.60    \nframe=    0 fps=0.0 q=0.0 size=       0KiB time=N/A bitrate=N/A speed=N/A elapsed=0:00:04.13    \nframe=    0 fps=0.0 q=0.0 size=       0KiB time=N/A bitrate=N/A speed=N/A elapsed=0:00:04.65    \nframe=    0 fps=0.0 q=0.0 size=       0KiB time=N/A bitrate=N/A speed=N/A elapsed=0:00:05.17    \nframe=    0 fps=0.0 q=0.0 size=       0KiB time=N/A bitrate=N/A speed=N/A elapsed=0:00:05.68    \nframe=    0 fps=0.0 q=0.0 size=       0KiB time=N/A bitrate=N/A speed=N/A elapsed=0:00:06.20    \nframe=    0 fps=0.0 q=0.0 size=       0KiB time=N/A bitrate=N/A speed=N/A elapsed=0:00:06.71    \nframe=    0 fps=0.0 q=0.0 size=       0KiB time=N/A bitrate=N/A speed=N/A elapsed=0:00:07.23    \nframe=    0 fps=0.0 q=0.0 size=       0KiB time=N/A bitrate=N/A speed=N/A elapsed=0:00:07.75    \nframe=    0 fps=0.0 q=0.0 size=       0KiB time=N/A bitrate=N/A speed=N/A elapsed=0:00:08.26    \nframe=    0 fps=0.0 q=0.0 size=       0KiB time=N/A bitrate=N/A speed=N/A elapsed=0:00:08.77    \nframe=    0 fps=0.0 q=0.0 size=       0KiB time=N/A bitrate=N/A speed=N/A elapsed=0:00:09.28    \nframe=    1 fps=0.1 q=49.7 size=       0KiB time=-00:00:00.00 bitrate=N/A speed=N/A elapsed=0:00:09.81    \nframe=    2 fps=0.2 q=51.0 size=       0KiB time=00:00:00.00 bitrate=N/A speed=   0x elapsed=0:00:10.32    \nframe=    3 fps=0.3 q=51.0 size=       0KiB time=00:00:00.00 bitrate=  42.2kbits/s speed=0.000769x elapsed=0:00:10.84    \nframe=    3 fps=0.3 q=51.0 size=       0KiB time=00:00:00.00 bitrate=  42.2kbits/s speed=0.000734x elapsed=0:00:11.35    \nframe=    4 fps=0.3 q=51.0 size=       0KiB time=00:00:00.01 bitrate=  21.1kbits/s speed=0.0014x elapsed=0:00:11.88    \nframe=    4 fps=0.3 q=51.0 size=       0KiB time=00:00:00.01 bitrate=  21.1kbits/s speed=0.00134x elapsed=0:00:12.40    \nframe=    5 fps=0.4 q=51.0 size=       0KiB time=00:00:00.02 bitrate=  14.1kbits/s speed=0.00194x elapsed=0:00:12.91    \nframe=    5 fps=0.4 q=51.0 size=       0KiB time=00:00:00.02 bitrate=  14.1kbits/s speed=0.00186x elapsed=0:00:13.43    \nframe=    6 fps=0.4 q=51.0 size=       0KiB time=00:00:00.03 bitrate=  10.6kbits/s speed=0.00239x elapsed=0:00:13.94    \nframe=    6 fps=0.4 q=51.0 size=       0KiB time=00:00:00.03 bitrate=  10.6kbits/s speed=0.0023x elapsed=0:00:14.46    \nframe=    7 fps=0.5 q=47.8 size=       0KiB time=00:00:00.04 bitrate=   8.4kbits/s speed=0.00278x elapsed=0:00:14.98    \nframe=    7 fps=0.5 q=47.8 size=       0KiB time=00:00:00.04 bitrate=   8.4kbits/s speed=0.00269x elapsed=0:00:15.49    \nframe=    8 fps=0.5 q=50.8 size=       0KiB time=00:00:00.05 bitrate=   7.0kbits/s speed=0.00312x elapsed=0:00:16.01    \nframe=    8 fps=0.5 q=50.8 size=       0KiB time=00:00:00.05 bitrate=   7.0kbits/s speed=0.00302x elapsed=0:00:16.53    \nframe=    8 fps=0.5 q=50.8 size=       0KiB time=00:00:00.05 bitrate=   7.0kbits/s speed=0.00293x elapsed=0:00:17.06    \nframe=    8 fps=0.5 q=50.8 size=       0KiB time=00:00:00.05 bitrate=   7.0kbits/s speed=0.00284x elapsed=0:00:17.58    \nframe=    8 fps=0.4 q=50.8 size=       0KiB time=00:00:00.05 bitrate=   7.0kbits/s speed=0.00276x elapsed=0:00:18.11    \nframe=    9 fps=0.5 q=51.0 size=       0KiB time=00:00:00.05 bitrate=   6.0kbits/s speed=0.00313x elapsed=0:00:18.64    \nframe=   10 fps=0.5 q=50.8 size=       0KiB time=00:00:00.06 bitrate=   5.3kbits/s speed=0.00348x elapsed=0:00:19.16    \nframe=   10 fps=0.5 q=50.8 size=       0KiB time=00:00:00.06 bitrate=   5.3kbits/s speed=0.00339x elapsed=0:00:19.66    \nframe=   11 fps=0.5 q=43.9 size=       0KiB time=00:00:00.07 bitrate=   4.7kbits/s speed=0.00372x elapsed=0:00:20.18    \nframe=   11 fps=0.5 q=43.9 size=       0KiB time=00:00:00.07 bitrate=   4.7kbits/s speed=0.00362x elapsed=0:00:20.69    \nframe=   12 fps=0.6 q=50.5 size=       0KiB time=00:00:00.08 bitrate=   4.2kbits/s speed=0.00393x elapsed=0:00:21.21    \nframe=   12 fps=0.6 q=50.5 size=       0KiB time=00:00:00.08 bitrate=   4.2kbits/s speed=0.00383x elapsed=0:00:21.73    \nframe=   13 fps=0.6 q=50.0 size=       0KiB time=00:00:00.09 bitrate=   3.8kbits/s speed=0.00412x elapsed=0:00:22.24    \nframe=   13 fps=0.6 q=50.0 size=       0KiB time=00:00:00.09 bitrate=   3.8kbits/s speed=0.00403x elapsed=0:00:22.76    \nframe=   13 fps=0.6 q=50.0 size=       0KiB time=00:00:00.09 bitrate=   3.8kbits/s speed=0.00394x elapsed=0:00:23.27    \nframe=   14 fps=0.6 q=51.0 size=       0KiB time=00:00:00.10 bitrate=   3.5kbits/s speed=0.0042x elapsed=0:00:23.79    \nframe=   14 fps=0.6 q=51.0 size=       0KiB time=00:00:00.10 bitrate=   3.5kbits/s speed=0.00411x elapsed=0:00:24.31    \nframe=   15 fps=0.6 q=45.3 size=       0KiB time=00:00:00.10 bitrate=   3.2kbits/s speed=0.00436x elapsed=0:00:24.82    \nframe=   15 fps=0.6 q=45.3 size=       0KiB time=00:00:00.10 bitrate=   3.2kbits/s speed=0.00428x elapsed=0:00:25.33    \nframe=   16 fps=0.6 q=49.3 size=       0KiB time=00:00:00.11 bitrate=   3.0kbits/s speed=0.00451x elapsed=0:00:25.85    \nframe=   16 fps=0.6 q=49.3 size=       0KiB time=00:00:00.11 bitrate=   3.0kbits/s speed=0.00442x elapsed=0:00:26.37    \nframe=   17 fps=0.6 q=51.0 size=       0KiB time=00:00:00.12 bitrate=   2.8kbits/s speed=0.00465x elapsed=0:00:26.88    \nframe=   17 fps=0.6 q=51.0 size=       0KiB time=00:00:00.12 bitrate=   2.8kbits/s speed=0.00456x elapsed=0:00:27.40    \nframe=   18 fps=0.6 q=49.9 size=       0KiB time=00:00:00.13 bitrate=   2.6kbits/s speed=0.00478x elapsed=0:00:27.91    \nframe=   18 fps=0.6 q=49.9 size=       0KiB time=00:00:00.13 bitrate=   2.6kbits/s speed=0.00469x elapsed=0:00:28.43    \nframe=   19 fps=0.7 q=43.8 size=       0KiB time=00:00:00.14 bitrate=   2.5kbits/s speed=0.00489x elapsed=0:00:28.95    \nframe=   20 fps=0.7 q=48.3 size=       0KiB time=00:00:00.15 bitrate=   2.3kbits/s speed=0.00509x elapsed=0:00:29.46    \nframe=   20 fps=0.7 q=48.3 size=       0KiB time=00:00:00.15 bitrate=   2.3kbits/s speed=0.005x elapsed=0:00:29.98    \nframe=   20 fps=0.7 q=48.3 size=       0KiB time=00:00:00.15 bitrate=   2.3kbits/s speed=0.00492x elapsed=0:00:30.49    \nframe=   21 fps=0.7 q=50.0 size=       0KiB time=00:00:00.15 bitrate=   2.2kbits/s speed=0.00511x elapsed=0:00:31.01    \nframe=   21 fps=0.7 q=50.0 size=       0KiB time=00:00:00.15 bitrate=   2.2kbits/s speed=0.00502x elapsed=0:00:31.53    \nframe=   21 fps=0.7 q=50.0 size=       0KiB time=00:00:00.15 bitrate=   2.2kbits/s speed=0.00494x elapsed=0:00:32.03    \nframe=   22 fps=0.7 q=49.0 size=       0KiB time=00:00:00.16 bitrate=   2.1kbits/s speed=0.00512x elapsed=0:00:32.55    \nframe=   22 fps=0.7 q=49.0 size=       0KiB time=00:00:00.16 bitrate=   2.1kbits/s speed=0.00504x elapsed=0:00:33.08    \nframe=   22 fps=0.7 q=49.0 size=       0KiB time=00:00:00.16 bitrate=   2.1kbits/s speed=0.00496x elapsed=0:00:33.58    \nframe=   23 fps=0.7 q=43.6 size=       0KiB time=00:00:00.17 bitrate=   2.0kbits/s speed=0.00513x elapsed=0:00:34.10    \nframe=   23 fps=0.7 q=43.6 size=       0KiB time=00:00:00.17 bitrate=   2.0kbits/s speed=0.00505x elapsed=0:00:34.62    \nframe=   24 fps=0.7 q=47.4 size=       0KiB time=00:00:00.18 bitrate=   1.9kbits/s speed=0.00522x elapsed=0:00:35.14    \nframe=   24 fps=0.7 q=47.4 size=       0KiB time=00:00:00.18 bitrate=   1.9kbits/s speed=0.00514x elapsed=0:00:35.65    \nframe=   24 fps=0.7 q=47.4 size=       0KiB time=00:00:00.18 bitrate=   1.9kbits/s speed=0.00507x elapsed=0:00:36.16    \nframe=   25 fps=0.7 q=49.9 size=       0KiB time=00:00:00.19 bitrate=   1.8kbits/s speed=0.00523x elapsed=0:00:36.68    \nframe=   25 fps=0.7 q=49.9 size=       0KiB time=00:00:00.19 bitrate=   1.8kbits/s speed=0.00515x elapsed=0:00:37.20    \nframe=   26 fps=0.7 q=48.9 size=       0KiB time=00:00:00.20 bitrate=   1.8kbits/s speed=0.0053x elapsed=0:00:37.71    \nframe=   26 fps=0.7 q=48.9 size=       0KiB time=00:00:00.20 bitrate=   1.8kbits/s speed=0.00523x elapsed=0:00:38.23    \nframe=   27 fps=0.7 q=42.9 size=       0KiB time=00:00:00.20 bitrate=   1.7kbits/s speed=0.00538x elapsed=0:00:38.75    \nframe=   27 fps=0.7 q=42.9 size=       0KiB time=00:00:00.20 bitrate=   1.7kbits/s speed=0.00531x elapsed=0:00:39.26    \nframe=   28 fps=0.7 q=47.2 size=       0KiB time=00:00:00.21 bitrate=   1.6kbits/s speed=0.00545x elapsed=0:00:39.78    \nframe=   28 fps=0.7 q=47.2 size=       0KiB time=00:00:00.21 bitrate=   1.6kbits/s speed=0.00538x elapsed=0:00:40.30    \nframe=   29 fps=0.7 q=50.0 size=       0KiB time=00:00:00.22 bitrate=   1.6kbits/s speed=0.00551x elapsed=0:00:40.81    \nframe=   29 fps=0.7 q=50.0 size=       0KiB time=00:00:00.22 bitrate=   1.6kbits/s speed=0.00544x elapsed=0:00:41.32    \nframe=   29 fps=0.7 q=50.0 size=       0KiB time=00:00:00.22 bitrate=   1.6kbits/s speed=0.00538x elapsed=0:00:41.83    \nframe=   30 fps=0.7 q=49.0 size=       0KiB time=00:00:00.23 bitrate=   1.5kbits/s speed=0.00551x elapsed=0:00:42.36    \nframe=   30 fps=0.7 q=49.0 size=       0KiB time=00:00:00.23 bitrate=   1.5kbits/s speed=0.00544x elapsed=0:00:42.87    \nframe=   30 fps=0.7 q=49.0 size=       0KiB time=00:00:00.23 bitrate=   1.5kbits/s speed=0.00538x elapsed=0:00:43.38    \nframe=   30 fps=0.7 q=49.0 size=       0KiB time=00:00:00.23 bitrate=   1.5kbits/s speed=0.00531x elapsed=0:00:43.90    \nframe=   31 fps=0.7 q=43.4 size=       0KiB time=00:00:00.24 bitrate=   1.5kbits/s speed=0.00544x elapsed=0:00:44.41    \nframe=   31 fps=0.7 q=43.4 size=       0KiB time=00:00:00.24 bitrate=   1.5kbits/s speed=0.00538x elapsed=0:00:44.93    \nframe=   31 fps=0.7 q=43.4 size=       0KiB time=00:00:00.24 bitrate=   1.5kbits/s speed=0.00532x elapsed=0:00:45.45    \nframe=   32 fps=0.7 q=46.8 size=       0KiB time=00:00:00.25 bitrate=   1.4kbits/s speed=0.00544x elapsed=0:00:45.96    \nframe=   32 fps=0.7 q=46.8 size=       0KiB time=00:00:00.25 bitrate=   1.4kbits/s speed=0.00538x elapsed=0:00:46.48    \nframe=   32 fps=0.7 q=46.8 size=       0KiB time=00:00:00.25 bitrate=   1.4kbits/s speed=0.00532x elapsed=0:00:46.99    \nframe=   33 fps=0.7 q=49.0 size=       0KiB time=00:00:00.25 bitrate=   1.4kbits/s speed=0.00544x elapsed=0:00:47.51    \nframe=   33 fps=0.7 q=49.0 size=       0KiB time=00:00:00.25 bitrate=   1.4kbits/s speed=0.00538x elapsed=0:00:48.03    \nframe=   34 fps=0.7 q=48.9 size=       0KiB time=00:00:00.26 bitrate=   1.3kbits/s speed=0.00549x elapsed=0:00:48.54    \nframe=   34 fps=0.7 q=48.9 size=       0KiB time=00:00:00.26 bitrate=   1.3kbits/s speed=0.00544x elapsed=0:00:49.06    \nframe=   35 fps=0.7 q=43.2 size=       0KiB time=00:00:00.27 bitrate=   1.3kbits/s speed=0.00555x elapsed=0:00:49.58    \nframe=   35 fps=0.7 q=43.2 size=       0KiB time=00:00:00.27 bitrate=   1.3kbits/s speed=0.00549x elapsed=0:00:50.08    \nframe=   36 fps=0.7 q=47.1 size=       0KiB time=00:00:00.28 bitrate=   1.2kbits/s speed=0.0056x elapsed=0:00:50.61    \nframe=   36 fps=0.7 q=47.1 size=       0KiB time=00:00:00.28 bitrate=   1.2kbits/s speed=0.00554x elapsed=0:00:51.12    \nframe=   36 fps=0.7 q=47.1 size=       0KiB time=00:00:00.28 bitrate=   1.2kbits/s speed=0.00549x elapsed=0:00:51.63    \nframe=   36 fps=0.7 q=47.1 size=       0KiB time=00:00:00.28 bitrate=   1.2kbits/s speed=0.00543x elapsed=0:00:52.15    \nframe=   36 fps=0.7 q=47.1 size=       0KiB time=00:00:00.28 bitrate=   1.2kbits/s speed=0.00538x elapsed=0:00:52.67    \nframe=   37 fps=0.7 q=49.0 size=       0KiB time=00:00:00.29 bitrate=   1.2kbits/s speed=0.00548x elapsed=0:00:53.18    \nframe=   37 fps=0.7 q=49.0 size=       0KiB time=00:00:00.29 bitrate=   1.2kbits/s speed=0.00543x elapsed=0:00:53.70    \nframe=   38 fps=0.7 q=49.0 size=       0KiB time=00:00:00.30 bitrate=   1.2kbits/s speed=0.00553x elapsed=0:00:54.21    \nframe=   38 fps=0.7 q=49.0 size=       0KiB time=00:00:00.30 bitrate=   1.2kbits/s speed=0.00548x elapsed=0:00:54.73    \nframe=   39 fps=0.7 q=43.6 size=       0KiB time=00:00:00.30 bitrate=   1.1kbits/s speed=0.00558x elapsed=0:00:55.24    \nframe=   39 fps=0.7 q=43.6 size=       0KiB time=00:00:00.30 bitrate=   1.1kbits/s speed=0.00553x elapsed=0:00:55.76    \nframe=   40 fps=0.7 q=47.2 size=       0KiB time=00:00:00.31 bitrate=   1.1kbits/s speed=0.00563x elapsed=0:00:56.28    \nframe=   40 fps=0.7 q=47.2 size=       0KiB time=00:00:00.31 bitrate=   1.1kbits/s speed=0.00558x elapsed=0:00:56.79    \nframe=   40 fps=0.7 q=47.2 size=       0KiB time=00:00:00.31 bitrate=   1.1kbits/s speed=0.00553x elapsed=0:00:57.30    \nframe=   41 fps=0.7 q=49.0 size=       0KiB time=00:00:00.32 bitrate=   1.1kbits/s speed=0.00562x elapsed=0:00:57.83    \nframe=   41 fps=0.7 q=49.0 size=       0KiB time=00:00:00.32 bitrate=   1.1kbits/s speed=0.00557x elapsed=0:00:58.33    \nframe=   42 fps=0.7 q=49.0 size=       0KiB time=00:00:00.33 bitrate=   1.1kbits/s speed=0.00566x elapsed=0:00:58.85    \nframe=   43 fps=0.7 q=43.4 size=       0KiB time=00:00:00.34 bitrate=   1.0kbits/s speed=0.00575x elapsed=0:00:59.37    \nframe=   43 fps=0.7 q=43.4 size=       0KiB time=00:00:00.34 bitrate=   1.0kbits/s speed=0.0057x elapsed=0:00:59.89    \nframe=   43 fps=0.7 q=43.4 size=       0KiB time=00:00:00.34 bitrate=   1.0kbits/s speed=0.00566x elapsed=0:01:00.40    \nframe=   44 fps=0.7 q=47.2 size=       0KiB time=00:00:00.35 bitrate=   1.0kbits/s speed=0.00575x elapsed=0:01:00.91    \nframe=   44 fps=0.7 q=47.2 size=       0KiB time=00:00:00.35 bitrate=   1.0kbits/s speed=0.0057x elapsed=0:01:01.43    \nframe=   44 fps=0.7 q=47.2 size=       0KiB time=00:00:00.35 bitrate=   1.0kbits/s speed=0.00565x elapsed=0:01:01.95    \nframe=   45 fps=0.7 q=49.0 size=       0KiB time=00:00:00.35 bitrate=   1.0kbits/s speed=0.00574x elapsed=0:01:02.46    \nframe=   45 fps=0.7 q=49.0 size=       0KiB time=00:00:00.35 bitrate=   1.0kbits/s speed=0.00569x elapsed=0:01:02.98    \nframe=   46 fps=0.7 q=49.0 size=       0KiB time=00:00:00.36 bitrate=   1.0kbits/s speed=0.00577x elapsed=0:01:03.49    \nframe=   47 fps=0.7 q=43.4 size=       0KiB time=00:00:00.37 bitrate=   0.9kbits/s speed=0.00586x elapsed=0:01:04.01    \nframe=   48 fps=0.7 q=46.9 size=       0KiB time=00:00:00.38 bitrate=   0.9kbits/s speed=0.00594x elapsed=0:01:04.52    \nframe=   48 fps=0.7 q=46.9 size=       0KiB time=00:00:00.38 bitrate=   0.9kbits/s speed=0.00589x elapsed=0:01:05.04    \nframe=   48 fps=0.7 q=46.9 size=       0KiB time=00:00:00.38 bitrate=   0.9kbits/s speed=0.00585x elapsed=0:01:05.56    \nframe=   49 fps=0.7 q=49.0 size=       0KiB time=00:00:00.39 bitrate=   0.9kbits/s speed=0.00593x elapsed=0:01:06.07    \nframe=   49 fps=0.7 q=49.0 size=       0KiB time=00:00:00.39 bitrate=   0.9kbits/s speed=0.00588x elapsed=0:01:06.58    \nframe=   49 fps=0.7 q=49.0 size=       0KiB time=00:00:00.39 bitrate=   0.9kbits/s speed=0.00584x elapsed=0:01:07.11    \nframe=   50 fps=0.7 q=49.0 size=       0KiB time=00:00:00.40 bitrate=   0.9kbits/s speed=0.00591x elapsed=0:01:07.64    \nframe=   50 fps=0.7 q=49.0 size=       0KiB time=00:00:00.40 bitrate=   0.9kbits/s speed=0.00587x elapsed=0:01:08.16    \nframe=   51 fps=0.7 q=43.3 size=       0KiB time=00:00:00.40 bitrate=   0.9kbits/s speed=0.00595x elapsed=0:01:08.67    \nframe=   51 fps=0.7 q=43.3 size=       0KiB time=00:00:00.40 bitrate=   0.9kbits/s speed=0.0059x elapsed=0:01:09.19    \nframe=   52 fps=0.7 q=46.8 size=       0KiB time=00:00:00.41 bitrate=   0.8kbits/s speed=0.00598x elapsed=0:01:09.70    \nframe=   52 fps=0.7 q=46.8 size=       0KiB time=00:00:00.41 bitrate=   0.8kbits/s speed=0.00593x elapsed=0:01:10.21    \nframe=   52 fps=0.7 q=46.8 size=       0KiB time=00:00:00.41 bitrate=   0.8kbits/s speed=0.00589x elapsed=0:01:10.73    \nframe=   52 fps=0.7 q=46.8 size=       0KiB time=00:00:00.41 bitrate=   0.8kbits/s speed=0.00585x elapsed=0:01:11.26    \nframe=   53 fps=0.7 q=49.0 size=       0KiB time=00:00:00.42 bitrate=   0.8kbits/s speed=0.00592x elapsed=0:01:11.78    \nframe=   53 fps=0.7 q=49.0 size=       0KiB time=00:00:00.42 bitrate=   0.8kbits/s speed=0.00588x elapsed=0:01:12.29    \nframe=   53 fps=0.7 q=49.0 size=       0KiB time=00:00:00.42 bitrate=   0.8kbits/s speed=0.00584x elapsed=0:01:12.81    \nframe=   54 fps=0.7 q=48.9 size=       0KiB time=00:00:00.43 bitrate=   0.8kbits/s speed=0.00591x elapsed=0:01:13.32    \nframe=   55 fps=0.7 q=42.9 size=       0KiB time=00:00:00.44 bitrate=   0.8kbits/s speed=0.00598x elapsed=0:01:13.83    \nframe=   56 fps=0.8 q=46.7 size=       0KiB time=00:00:00.45 bitrate=   0.8kbits/s speed=0.00605x elapsed=0:01:14.36    \nframe=   56 fps=0.7 q=46.7 size=       0KiB time=00:00:00.45 bitrate=   0.8kbits/s speed=0.00601x elapsed=0:01:14.87    \nframe=   56 fps=0.7 q=46.7 size=       0KiB time=00:00:00.45 bitrate=   0.8kbits/s speed=0.00597x elapsed=0:01:15.38    \nframe=   56 fps=0.7 q=46.7 size=       0KiB time=00:00:00.45 bitrate=   0.8kbits/s speed=0.00593x elapsed=0:01:15.90    \nframe=   57 fps=0.7 q=48.9 size=       0KiB time=00:00:00.45 bitrate=   0.8kbits/s speed=0.006x elapsed=0:01:16.41    \nframe=   57 fps=0.7 q=48.9 size=       0KiB time=00:00:00.45 bitrate=   0.8kbits/s speed=0.00596x elapsed=0:01:16.94    \nframe=   58 fps=0.7 q=49.0 size=       0KiB time=00:00:00.46 bitrate=   0.8kbits/s speed=0.00603x elapsed=0:01:17.45    \nframe=   58 fps=0.7 q=49.0 size=       0KiB time=00:00:00.46 bitrate=   0.8kbits/s speed=0.00599x elapsed=0:01:17.96    \nframe=   58 fps=0.7 q=49.0 size=       0KiB time=00:00:00.46 bitrate=   0.8kbits/s speed=0.00595x elapsed=0:01:18.48    \nframe=   58 fps=0.7 q=49.0 size=       0KiB time=00:00:00.46 bitrate=   0.8kbits/s speed=0.00591x elapsed=0:01:18.99    \nframe=   58 fps=0.7 q=49.0 size=       0KiB time=00:00:00.46 bitrate=   0.8kbits/s speed=0.00587x elapsed=0:01:19.50    \nframe=   58 fps=0.7 q=49.0 size=       0KiB time=00:00:00.46 bitrate=   0.8kbits/s speed=0.00583x elapsed=0:01:20.03    \nframe=   59 fps=0.7 q=43.1 size=       0KiB time=00:00:00.47 bitrate=   0.7kbits/s speed=0.0059x elapsed=0:01:20.54    \nframe=   60 fps=0.7 q=46.8 size=       0KiB time=00:00:00.48 bitrate=   0.7kbits/s speed=0.00596x elapsed=0:01:21.06    \nframe=   60 fps=0.7 q=46.8 size=       0KiB time=00:00:00.48 bitrate=   0.7kbits/s speed=0.00593x elapsed=0:01:21.57    \nframe=   60 fps=0.7 q=46.8 size=       0KiB time=00:00:00.48 bitrate=   0.7kbits/s speed=0.00589x elapsed=0:01:22.09    \nframe=   61 fps=0.7 q=49.0 size=       0KiB time=00:00:00.49 bitrate=   0.7kbits/s speed=0.00595x elapsed=0:01:22.61    \nframe=   61 fps=0.7 q=49.0 size=       0KiB time=00:00:00.49 bitrate=   0.7kbits/s speed=0.00591x elapsed=0:01:23.12    \nframe=   62 fps=0.7 q=49.0 size=       0KiB time=00:00:00.50 bitrate=   0.7kbits/s speed=0.00598x elapsed=0:01:23.64    \nframe=   62 fps=0.7 q=49.0 size=       0KiB time=00:00:00.50 bitrate=   0.7kbits/s speed=0.00594x elapsed=0:01:24.15    \nframe=   62 fps=0.7 q=49.0 size=       0KiB time=00:00:00.50 bitrate=   0.7kbits/s speed=0.00591x elapsed=0:01:24.67    \nframe=   62 fps=0.7 q=49.0 size=       0KiB time=00:00:00.50 bitrate=   0.7kbits/s speed=0.00587x elapsed=0:01:25.18    \nframe=   63 fps=0.7 q=43.2 size=       0KiB time=00:00:00.50 bitrate=   0.7kbits/s speed=0.00593x elapsed=0:01:25.69    \nframe=   63 fps=0.7 q=43.2 size=       0KiB time=00:00:00.50 bitrate=   0.7kbits/s speed=0.0059x elapsed=0:01:26.21    \nframe=   64 fps=0.7 q=46.9 size=       0KiB time=00:00:00.51 bitrate=   0.7kbits/s speed=0.00596x elapsed=0:01:26.72    \nframe=   64 fps=0.7 q=46.9 size=       0KiB time=00:00:00.51 bitrate=   0.7kbits/s speed=0.00592x elapsed=0:01:27.25    \nframe=   64 fps=0.7 q=46.9 size=       0KiB time=00:00:00.51 bitrate=   0.7kbits/s speed=0.00589x elapsed=0:01:27.76    \nframe=   64 fps=0.7 q=46.9 size=       0KiB time=00:00:00.51 bitrate=   0.7kbits/s speed=0.00585x elapsed=0:01:28.27    \nframe=   64 fps=0.7 q=46.9 size=       0KiB time=00:00:00.51 bitrate=   0.7kbits/s speed=0.00582x elapsed=0:01:28.79    \nframe=   64 fps=0.7 q=46.9 size=       0KiB time=00:00:00.51 bitrate=   0.7kbits/s speed=0.00578x elapsed=0:01:29.31    \nframe=   64 fps=0.7 q=46.9 size=       0KiB time=00:00:00.51 bitrate=   0.7kbits/s speed=0.00575x elapsed=0:01:29.84    \nframe=   64 fps=0.7 q=46.9 size=       0KiB time=00:00:00.51 bitrate=   0.7kbits/s speed=0.00572x elapsed=0:01:30.35    \nframe=   65 fps=0.7 q=49.0 size=       0KiB time=00:00:00.52 bitrate=   0.7kbits/s speed=0.00578x elapsed=0:01:30.87    \nframe=   65 fps=0.7 q=49.0 size=       0KiB time=00:00:00.52 bitrate=   0.7kbits/s speed=0.00574x elapsed=0:01:31.38    \nframe=   65 fps=0.7 q=49.0 size=       0KiB time=00:00:00.52 bitrate=   0.7kbits/s speed=0.00571x elapsed=0:01:31.90    \nframe=   65 fps=0.7 q=49.0 size=       0KiB time=00:00:00.52 bitrate=   0.7kbits/s speed=0.00568x elapsed=0:01:32.42    \nframe=   65 fps=0.7 q=49.0 size=       0KiB time=00:00:00.52 bitrate=   0.7kbits/s speed=0.00565x elapsed=0:01:32.95    \nframe=   65 fps=0.7 q=49.0 size=       0KiB time=00:00:00.52 bitrate=   0.7kbits/s speed=0.00562x elapsed=0:01:33.48    \nframe=   65 fps=0.7 q=49.0 size=       0KiB time=00:00:00.52 bitrate=   0.7kbits/s speed=0.00558x elapsed=0:01:34.01    \nframe=   65 fps=0.7 q=49.0 size=       0KiB time=00:00:00.52 bitrate=   0.7kbits/s speed=0.00555x elapsed=0:01:34.53    \nframe=   65 fps=0.7 q=49.0 size=       0KiB time=00:00:00.52 bitrate=   0.7kbits/s speed=0.00552x elapsed=0:01:35.06    \nframe=   65 fps=0.7 q=49.0 size=       0KiB time=00:00:00.52 bitrate=   0.7kbits/s speed=0.00549x elapsed=0:01:35.58    \nframe=   65 fps=0.7 q=49.0 size=       0KiB time=00:00:00.52 bitrate=   0.7kbits/s speed=0.00546x elapsed=0:01:36.10    \nframe=   66 fps=0.7 q=48.9 size=       0KiB time=00:00:00.53 bitrate=   0.7kbits/s speed=0.00552x elapsed=0:01:36.62    \nframe=   66 fps=0.7 q=48.9 size=       0KiB time=00:00:00.53 bitrate=   0.7kbits/s speed=0.00549x elapsed=0:01:37.13    \nframe=   66 fps=0.7 q=48.9 size=       0KiB time=00:00:00.53 bitrate=   0.7kbits/s speed=0.00546x elapsed=0:01:37.65    \nframe=   66 fps=0.7 q=48.9 size=       0KiB time=00:00:00.53 bitrate=   0.7kbits/s speed=0.00543x elapsed=0:01:38.16    \nframe=   66 fps=0.7 q=48.9 size=       0KiB time=00:00:00.53 bitrate=   0.7kbits/s speed=0.0054x elapsed=0:01:38.69    \nframe=   67 fps=0.7 q=44.0 size=       0KiB time=00:00:00.54 bitrate=   0.6kbits/s speed=0.00546x elapsed=0:01:39.22    \nframe=   67 fps=0.7 q=44.0 size=       0KiB time=00:00:00.54 bitrate=   0.6kbits/s speed=0.00543x elapsed=0:01:39.73    \nframe=   67 fps=0.7 q=44.0 size=       0KiB time=00:00:00.54 bitrate=   0.6kbits/s speed=0.0054x elapsed=0:01:40.27    \nframe=   67 fps=0.7 q=44.0 size=       0KiB time=00:00:00.54 bitrate=   0.6kbits/s speed=0.00537x elapsed=0:01:40.80    \nframe=   67 fps=0.7 q=44.0 size=       0KiB time=00:00:00.54 bitrate=   0.6kbits/s speed=0.00535x elapsed=0:01:41.33    \nframe=   67 fps=0.7 q=44.0 size=       0KiB time=00:00:00.54 bitrate=   0.6kbits/s speed=0.00532x elapsed=0:01:41.83    \nframe=   67 fps=0.7 q=44.0 size=       0KiB time=00:00:00.54 bitrate=   0.6kbits/s speed=0.00529x elapsed=0:01:42.36    \nframe=   68 fps=0.7 q=47.0 size=       0KiB time=00:00:00.55 bitrate=   0.6kbits/s speed=0.00535x elapsed=0:01:42.88    \nframe=   68 fps=0.7 q=47.0 size=       0KiB time=00:00:00.55 bitrate=   0.6kbits/s speed=0.00532x elapsed=0:01:43.40    \nframe=   68 fps=0.7 q=47.0 size=       0KiB time=00:00:00.55 bitrate=   0.6kbits/s speed=0.00529x elapsed=0:01:43.92    \nframe=   68 fps=0.7 q=47.0 size=       0KiB time=00:00:00.55 bitrate=   0.6kbits/s speed=0.00527x elapsed=0:01:44.43    \nframe=   68 fps=0.6 q=47.0 size=       0KiB time=00:00:00.55 bitrate=   0.6kbits/s speed=0.00524x elapsed=0:01:44.97    \nframe=   68 fps=0.6 q=47.0 size=       0KiB time=00:00:00.55 bitrate=   0.6kbits/s speed=0.00521x elapsed=0:01:45.50    \nframe=   68 fps=0.6 q=47.0 size=       0KiB time=00:00:00.55 bitrate=   0.6kbits/s speed=0.00519x elapsed=0:01:46.03    \nframe=   68 fps=0.6 q=47.0 size=       0KiB time=00:00:00.55 bitrate=   0.6kbits/s speed=0.00516x elapsed=0:01:46.54    \nframe=   68 fps=0.6 q=47.0 size=       0KiB time=00:00:00.55 bitrate=   0.6kbits/s speed=0.00514x elapsed=0:01:47.06    \nframe=   69 fps=0.6 q=49.0 size=       0KiB time=00:00:00.55 bitrate=   0.6kbits/s speed=0.00519x elapsed=0:01:47.58    \nframe=   70 fps=0.6 q=48.9 size=       0KiB time=00:00:00.56 bitrate=   0.6kbits/s speed=0.00524x elapsed=0:01:48.10    \nframe=   70 fps=0.6 q=48.9 size=       0KiB time=00:00:00.56 bitrate=   0.6kbits/s speed=0.00522x elapsed=0:01:48.62    \nframe=   71 fps=0.7 q=43.4 size=       0KiB time=00:00:00.57 bitrate=   0.6kbits/s speed=0.00527x elapsed=0:01:49.14    \nframe=   72 fps=0.7 q=47.0 size=       0KiB time=00:00:00.58 bitrate=   0.6kbits/s speed=0.00532x elapsed=0:01:49.65    \nframe=   72 fps=0.7 q=47.0 size=       0KiB time=00:00:00.58 bitrate=   0.6kbits/s speed=0.00529x elapsed=0:01:50.17    \nframe=   73 fps=0.7 q=49.0 size=       0KiB time=00:00:00.59 bitrate=   0.6kbits/s speed=0.00535x elapsed=0:01:50.68    \nframe=   73 fps=0.7 q=49.0 size=       0KiB time=00:00:00.59 bitrate=   0.6kbits/s speed=0.00532x elapsed=0:01:51.20    \nframe=   73 fps=0.7 q=49.0 size=       0KiB time=00:00:00.59 bitrate=   0.6kbits/s speed=0.0053x elapsed=0:01:51.71    \nframe=   74 fps=0.7 q=48.9 size=       0KiB time=00:00:00.60 bitrate=   0.6kbits/s speed=0.00535x elapsed=0:01:52.24    \nframe=   75 fps=0.7 q=43.9 size=       0KiB time=00:00:00.60 bitrate=   0.6kbits/s speed=0.0054x elapsed=0:01:52.74    \nframe=   75 fps=0.7 q=43.9 size=       0KiB time=00:00:00.60 bitrate=   0.6kbits/s speed=0.00537x elapsed=0:01:53.25    \nframe=   76 fps=0.7 q=47.1 size=       0KiB time=00:00:00.61 bitrate=   0.6kbits/s speed=0.00542x elapsed=0:01:53.78    \nframe=   77 fps=0.7 q=49.0 size=       0KiB time=00:00:00.62 bitrate=   0.6kbits/s speed=0.00547x elapsed=0:01:54.31    \nframe=   77 fps=0.7 q=49.0 size=       0KiB time=00:00:00.62 bitrate=   0.6kbits/s speed=0.00544x elapsed=0:01:54.83    \nframe=   77 fps=0.7 q=49.0 size=       0KiB time=00:00:00.62 bitrate=   0.6kbits/s speed=0.00542x elapsed=0:01:55.34    \nframe=   77 fps=0.7 q=49.0 size=       0KiB time=00:00:00.62 bitrate=   0.6kbits/s speed=0.00539x elapsed=0:01:55.85    \nframe=   78 fps=0.7 q=48.9 size=       0KiB time=00:00:00.63 bitrate=   0.6kbits/s speed=0.00544x elapsed=0:01:56.37    \nframe=   78 fps=0.7 q=48.9 size=       0KiB time=00:00:00.63 bitrate=   0.6kbits/s speed=0.00542x elapsed=0:01:56.88    \nframe=   78 fps=0.7 q=48.9 size=       0KiB time=00:00:00.63 bitrate=   0.6kbits/s speed=0.00539x elapsed=0:01:57.39    \nframe=   78 fps=0.7 q=48.9 size=       0KiB time=00:00:00.63 bitrate=   0.6kbits/s speed=0.00537x elapsed=0:01:57.92    \nframe=   79 fps=0.7 q=43.6 size=       0KiB time=00:00:00.64 bitrate=   0.5kbits/s speed=0.00542x elapsed=0:01:58.46    \nframe=   79 fps=0.7 q=43.6 size=       0KiB time=00:00:00.64 bitrate=   0.5kbits/s speed=0.00539x elapsed=0:01:58.99    \nframe=   80 fps=0.7 q=47.0 size=       0KiB time=00:00:00.65 bitrate=   0.5kbits/s speed=0.00544x elapsed=0:01:59.51    \nframe=   80 fps=0.7 q=47.0 size=       0KiB time=00:00:00.65 bitrate=   0.5kbits/s speed=0.00542x elapsed=0:02:00.03    \nframe=   81 fps=0.7 q=48.9 size=       0KiB time=00:00:00.65 bitrate=   0.5kbits/s speed=0.00546x elapsed=0:02:00.54    \nframe=   81 fps=0.7 q=48.9 size=       0KiB time=00:00:00.65 bitrate=   0.5kbits/s speed=0.00544x elapsed=0:02:01.06    \nframe=   82 fps=0.7 q=48.9 size=       0KiB time=00:00:00.66 bitrate=   0.5kbits/s speed=0.00548x elapsed=0:02:01.57    \nframe=   82 fps=0.7 q=48.9 size=       0KiB time=00:00:00.66 bitrate=   0.5kbits/s speed=0.00546x elapsed=0:02:02.09    \nframe=   82 fps=0.7 q=48.9 size=       0KiB time=00:00:00.66 bitrate=   0.5kbits/s speed=0.00544x elapsed=0:02:02.61    \nframe=   83 fps=0.7 q=43.9 size=       0KiB time=00:00:00.67 bitrate=   0.5kbits/s speed=0.00548x elapsed=0:02:03.11    \nframe=   83 fps=0.7 q=43.9 size=       0KiB time=00:00:00.67 bitrate=   0.5kbits/s speed=0.00546x elapsed=0:02:03.63    \nframe=   84 fps=0.7 q=47.0 size=       0KiB time=00:00:00.68 bitrate=   0.5kbits/s speed=0.0055x elapsed=0:02:04.16    \nframe=   84 fps=0.7 q=47.0 size=       0KiB time=00:00:00.68 bitrate=   0.5kbits/s speed=0.00548x elapsed=0:02:04.69    \nframe=   85 fps=0.7 q=49.0 size=       0KiB time=00:00:00.69 bitrate=   0.5kbits/s speed=0.00552x elapsed=0:02:05.20    \nframe=   86 fps=0.7 q=48.9 size=       0KiB time=00:00:00.70 bitrate=   0.5kbits/s speed=0.00557x elapsed=0:02:05.71    \nframe=   86 fps=0.7 q=48.9 size=       0KiB time=00:00:00.70 bitrate=   0.5kbits/s speed=0.00555x elapsed=0:02:06.23    \nframe=   86 fps=0.7 q=48.9 size=       0KiB time=00:00:00.70 bitrate=   0.5kbits/s speed=0.00552x elapsed=0:02:06.74    \nframe=   86 fps=0.7 q=48.9 size=       0KiB time=00:00:00.70 bitrate=   0.5kbits/s speed=0.0055x elapsed=0:02:07.26    \nframe=   86 fps=0.7 q=48.9 size=       0KiB time=00:00:00.70 bitrate=   0.5kbits/s speed=0.00548x elapsed=0:02:07.78    \nframe=   86 fps=0.7 q=48.9 size=       0KiB time=00:00:00.70 bitrate=   0.5kbits/s speed=0.00546x elapsed=0:02:08.29    \nframe=   86 fps=0.7 q=48.9 size=       0KiB time=00:00:00.70 bitrate=   0.5kbits/s speed=0.00543x elapsed=0:02:08.81    \nframe=   87 fps=0.7 q=43.1 size=       0KiB time=00:00:00.70 bitrate=   0.5kbits/s speed=0.00548x elapsed=0:02:09.32    \nframe=   87 fps=0.7 q=43.1 size=       0KiB time=00:00:00.70 bitrate=   0.5kbits/s speed=0.00546x elapsed=0:02:09.84    \nframe=   88 fps=0.7 q=46.9 size=       0KiB time=00:00:00.71 bitrate=   0.5kbits/s speed=0.0055x elapsed=0:02:10.35    \nframe=   89 fps=0.7 q=48.9 size=       0KiB time=00:00:00.72 bitrate=   0.5kbits/s speed=0.00554x elapsed=0:02:10.86    \nframe=   89 fps=0.7 q=48.9 size=       0KiB time=00:00:00.72 bitrate=   0.5kbits/s speed=0.00552x elapsed=0:02:11.39    \nframe=   89 fps=0.7 q=48.9 size=       0KiB time=00:00:00.72 bitrate=   0.5kbits/s speed=0.0055x elapsed=0:02:11.90    \nframe=   90 fps=0.7 q=48.9 size=       0KiB time=00:00:00.73 bitrate=   0.5kbits/s speed=0.00554x elapsed=0:02:12.42    \nframe=   90 fps=0.7 q=48.9 size=       0KiB time=00:00:00.73 bitrate=   0.5kbits/s speed=0.00552x elapsed=0:02:12.93    \nframe=   91 fps=0.7 q=43.9 size=       0KiB time=00:00:00.74 bitrate=   0.5kbits/s speed=0.00556x elapsed=0:02:13.45    \nframe=   91 fps=0.7 q=43.9 size=       0KiB time=00:00:00.74 bitrate=   0.5kbits/s speed=0.00554x elapsed=0:02:13.96    \nframe=   92 fps=0.7 q=47.0 size=       0KiB time=00:00:00.75 bitrate=   0.5kbits/s speed=0.00558x elapsed=0:02:14.49    \nframe=   92 fps=0.7 q=47.0 size=       0KiB time=00:00:00.75 bitrate=   0.5kbits/s speed=0.00556x elapsed=0:02:15.01    \nframe=   92 fps=0.7 q=47.0 size=       0KiB time=00:00:00.75 bitrate=   0.5kbits/s speed=0.00553x elapsed=0:02:15.52    \nframe=   92 fps=0.7 q=47.0 size=       0KiB time=00:00:00.75 bitrate=   0.5kbits/s speed=0.00551x elapsed=0:02:16.04    \nframe=   93 fps=0.7 q=48.9 size=       0KiB time=00:00:00.75 bitrate=   0.5kbits/s speed=0.00555x elapsed=0:02:16.56    \nframe=   93 fps=0.7 q=48.9 size=       0KiB time=00:00:00.75 bitrate=   0.5kbits/s speed=0.00553x elapsed=0:02:17.07    \nframe=   94 fps=0.7 q=49.0 size=       0KiB time=00:00:00.76 bitrate=   0.5kbits/s speed=0.00557x elapsed=0:02:17.59    \nframe=   94 fps=0.7 q=49.0 size=       0KiB time=00:00:00.76 bitrate=   0.5kbits/s speed=0.00555x elapsed=0:02:18.11    \nframe=   94 fps=0.7 q=49.0 size=       0KiB time=00:00:00.76 bitrate=   0.5kbits/s speed=0.00553x elapsed=0:02:18.62    \nframe=   94 fps=0.7 q=49.0 size=       0KiB time=00:00:00.76 bitrate=   0.5kbits/s speed=0.00551x elapsed=0:02:19.13    \nframe=   95 fps=0.7 q=43.4 size=       0KiB time=00:00:00.77 bitrate=   0.5kbits/s speed=0.00555x elapsed=0:02:19.65    \nframe=   95 fps=0.7 q=43.4 size=       0KiB time=00:00:00.77 bitrate=   0.5kbits/s speed=0.00553x elapsed=0:02:20.17    \nframe=   96 fps=0.7 q=47.0 size=       0KiB time=00:00:00.78 bitrate=   0.4kbits/s speed=0.00557x elapsed=0:02:20.68    \nframe=   96 fps=0.7 q=47.0 size=       0KiB time=00:00:00.78 bitrate=   0.4kbits/s speed=0.00555x elapsed=0:02:21.19    \nframe=   96 fps=0.7 q=47.0 size=       0KiB time=00:00:00.78 bitrate=   0.4kbits/s speed=0.00553x elapsed=0:02:21.71    \nframe=   96 fps=0.7 q=47.0 size=       0KiB time=00:00:00.78 bitrate=   0.4kbits/s speed=0.00551x elapsed=0:02:22.23    \nframe=   97 fps=0.7 q=48.8 size=       0KiB time=00:00:00.79 bitrate=   0.4kbits/s speed=0.00555x elapsed=0:02:22.75    \nframe=   97 fps=0.7 q=48.8 size=       0KiB time=00:00:00.79 bitrate=   0.4kbits/s speed=0.00553x elapsed=0:02:23.26    \nframe=   97 fps=0.7 q=48.8 size=       0KiB time=00:00:00.79 bitrate=   0.4kbits/s speed=0.00551x elapsed=0:02:23.77    \nframe=   97 fps=0.7 q=48.8 size=       0KiB time=00:00:00.79 bitrate=   0.4kbits/s speed=0.00549x elapsed=0:02:24.29    \nframe=   98 fps=0.7 q=48.9 size=       0KiB time=00:00:00.80 bitrate=   0.4kbits/s speed=0.00552x elapsed=0:02:24.81    \nframe=   98 fps=0.7 q=48.9 size=       0KiB time=00:00:00.80 bitrate=   0.4kbits/s speed=0.0055x elapsed=0:02:25.32    \nframe=   99 fps=0.7 q=43.4 size=       0KiB time=00:00:00.80 bitrate=   0.4kbits/s speed=0.00554x elapsed=0:02:25.84    \nframe=   99 fps=0.7 q=43.4 size=       0KiB time=00:00:00.80 bitrate=   0.4kbits/s speed=0.00552x elapsed=0:02:26.36    \nframe=  100 fps=0.7 q=46.9 size=       0KiB time=00:00:00.81 bitrate=   0.4kbits/s speed=0.00556x elapsed=0:02:26.87    \nframe=  100 fps=0.7 q=46.9 size=       0KiB time=00:00:00.81 bitrate=   0.4kbits/s speed=0.00554x elapsed=0:02:27.39    \nframe=  100 fps=0.7 q=46.9 size=       0KiB time=00:00:00.81 bitrate=   0.4kbits/s speed=0.00552x elapsed=0:02:27.91    \nframe=  101 fps=0.7 q=48.8 size=       0KiB time=00:00:00.82 bitrate=   0.4kbits/s speed=0.00556x elapsed=0:02:28.42    \nframe=  101 fps=0.7 q=48.8 size=       0KiB time=00:00:00.82 bitrate=   0.4kbits/s speed=0.00554x elapsed=0:02:28.93    \nframe=  102 fps=0.7 q=48.9 size=       0KiB time=00:00:00.83 bitrate=   0.4kbits/s speed=0.00558x elapsed=0:02:29.44    \nframe=  102 fps=0.7 q=48.9 size=       0KiB time=00:00:00.83 bitrate=   0.4kbits/s speed=0.00556x elapsed=0:02:29.96    \nframe=  102 fps=0.7 q=48.9 size=       0KiB time=00:00:00.83 bitrate=   0.4kbits/s speed=0.00554x elapsed=0:02:30.48    \nframe=  102 fps=0.7 q=48.9 size=       0KiB time=00:00:00.83 bitrate=   0.4kbits/s speed=0.00552x elapsed=0:02:31.00    \nframe=  103 fps=0.7 q=43.9 size=       0KiB time=00:00:00.84 bitrate=   0.4kbits/s speed=0.00556x elapsed=0:02:31.51    \nframe=  103 fps=0.7 q=43.9 size=       0KiB time=00:00:00.84 bitrate=   0.4kbits/s speed=0.00554x elapsed=0:02:32.02    \nframe=  103 fps=0.7 q=43.9 size=       0KiB time=00:00:00.84 bitrate=   0.4kbits/s speed=0.00552x elapsed=0:02:32.54    \nframe=  104 fps=0.7 q=47.1 size=       0KiB time=00:00:00.85 bitrate=   0.4kbits/s speed=0.00555x elapsed=0:02:33.05    \nframe=  104 fps=0.7 q=47.1 size=       0KiB time=00:00:00.85 bitrate=   0.4kbits/s speed=0.00553x elapsed=0:02:33.58    \nframe=  104 fps=0.7 q=47.1 size=       0KiB time=00:00:00.85 bitrate=   0.4kbits/s speed=0.00552x elapsed=0:02:34.10    \nframe=  104 fps=0.7 q=47.1 size=       0KiB time=00:00:00.85 bitrate=   0.4kbits/s speed=0.0055x elapsed=0:02:34.62    \nframe=  104 fps=0.7 q=47.1 size=       0KiB time=00:00:00.85 bitrate=   0.4kbits/s speed=0.00548x elapsed=0:02:35.13    \nframe=  105 fps=0.7 q=48.8 size=       0KiB time=00:00:00.85 bitrate=   0.4kbits/s speed=0.00551x elapsed=0:02:35.66    \nframe=  106 fps=0.7 q=49.0 size=       0KiB time=00:00:00.86 bitrate=   0.4kbits/s speed=0.00555x elapsed=0:02:36.17    \nframe=  106 fps=0.7 q=49.0 size=       0KiB time=00:00:00.86 bitrate=   0.4kbits/s speed=0.00553x elapsed=0:02:36.68    \nframe=  106 fps=0.7 q=49.0 size=       0KiB time=00:00:00.86 bitrate=   0.4kbits/s speed=0.00551x elapsed=0:02:37.20    \nframe=  106 fps=0.7 q=49.0 size=       0KiB time=00:00:00.86 bitrate=   0.4kbits/s speed=0.0055x elapsed=0:02:37.71    \nframe=  107 fps=0.7 q=43.7 size=       0KiB time=00:00:00.87 bitrate=   0.4kbits/s speed=0.00553x elapsed=0:02:38.23    \nframe=  107 fps=0.7 q=43.7 size=       0KiB time=00:00:00.87 bitrate=   0.4kbits/s speed=0.00551x elapsed=0:02:38.74    \nframe=  108 fps=0.7 q=47.0 size=       0KiB time=00:00:00.88 bitrate=   0.4kbits/s speed=0.00555x elapsed=0:02:39.26    \nframe=  108 fps=0.7 q=47.0 size=       0KiB time=00:00:00.88 bitrate=   0.4kbits/s speed=0.00553x elapsed=0:02:39.78    \nframe=  109 fps=0.7 q=48.9 size=       0KiB time=00:00:00.89 bitrate=   0.4kbits/s speed=0.00556x elapsed=0:02:40.29    \nframe=  109 fps=0.7 q=48.9 size=       0KiB time=00:00:00.89 bitrate=   0.4kbits/s speed=0.00554x elapsed=0:02:40.81    \nframe=  110 fps=0.7 q=48.9 size=       0KiB time=00:00:00.90 bitrate=   0.4kbits/s speed=0.00558x elapsed=0:02:41.32    \nframe=  110 fps=0.7 q=48.9 size=       0KiB time=00:00:00.90 bitrate=   0.4kbits/s speed=0.00556x elapsed=0:02:41.83    \nframe=  110 fps=0.7 q=48.9 size=       0KiB time=00:00:00.90 bitrate=   0.4kbits/s speed=0.00554x elapsed=0:02:42.36    \nframe=  111 fps=0.7 q=43.2 size=       0KiB time=00:00:00.90 bitrate=   0.4kbits/s speed=0.00558x elapsed=0:02:42.87    \nframe=  112 fps=0.7 q=46.9 size=       0KiB time=00:00:00.91 bitrate=   0.4kbits/s speed=0.00561x elapsed=0:02:43.39    \nframe=  112 fps=0.7 q=46.9 size=       0KiB time=00:00:00.91 bitrate=   0.4kbits/s speed=0.00559x elapsed=0:02:43.90    \nframe=  112 fps=0.7 q=46.9 size=       0KiB time=00:00:00.91 bitrate=   0.4kbits/s speed=0.00558x elapsed=0:02:44.41    \nframe=  112 fps=0.7 q=46.9 size=       0KiB time=00:00:00.91 bitrate=   0.4kbits/s speed=0.00556x elapsed=0:02:44.93    \nframe=  112 fps=0.7 q=46.9 size=       0KiB time=00:00:00.91 bitrate=   0.4kbits/s speed=0.00554x elapsed=0:02:45.45    \nframe=  113 fps=0.7 q=48.9 size=       0KiB time=00:00:00.92 bitrate=   0.4kbits/s speed=0.00557x elapsed=0:02:45.96    \nframe=  113 fps=0.7 q=48.9 size=       0KiB time=00:00:00.92 bitrate=   0.4kbits/s speed=0.00556x elapsed=0:02:46.48    \nframe=  113 fps=0.7 q=48.9 size=       0KiB time=00:00:00.92 bitrate=   0.4kbits/s speed=0.00554x elapsed=0:02:46.99    \nframe=  113 fps=0.7 q=48.9 size=       0KiB time=00:00:00.92 bitrate=   0.4kbits/s speed=0.00552x elapsed=0:02:47.51    \nframe=  114 fps=0.7 q=48.8 size=       0KiB time=00:00:00.93 bitrate=   0.4kbits/s speed=0.00555x elapsed=0:02:48.02    \nframe=  114 fps=0.7 q=48.8 size=       0KiB time=00:00:00.93 bitrate=   0.4kbits/s speed=0.00554x elapsed=0:02:48.54    \nframe=  115 fps=0.7 q=43.5 size=       0KiB time=00:00:00.94 bitrate=   0.4kbits/s speed=0.00557x elapsed=0:02:49.05    \nframe=  115 fps=0.7 q=43.5 size=       0KiB time=00:00:00.94 bitrate=   0.4kbits/s speed=0.00555x elapsed=0:02:49.57    \nframe=  116 fps=0.7 q=46.7 size=       0KiB time=00:00:00.95 bitrate=   0.4kbits/s speed=0.00558x elapsed=0:02:50.10    \nframe=  116 fps=0.7 q=46.7 size=       0KiB time=00:00:00.95 bitrate=   0.4kbits/s speed=0.00557x elapsed=0:02:50.63    \nframe=  116 fps=0.7 q=46.7 size=       0KiB time=00:00:00.95 bitrate=   0.4kbits/s speed=0.00555x elapsed=0:02:51.15    \nframe=  117 fps=0.7 q=48.7 size=       0KiB time=00:00:00.95 bitrate=   0.4kbits/s speed=0.00558x elapsed=0:02:51.67    \nframe=  117 fps=0.7 q=48.7 size=       0KiB time=00:00:00.95 bitrate=   0.4kbits/s speed=0.00557x elapsed=0:02:52.18    \nframe=  118 fps=0.7 q=49.0 size=       0KiB time=00:00:00.96 bitrate=   0.4kbits/s speed=0.0056x elapsed=0:02:52.70    \nframe=  118 fps=0.7 q=49.0 size=       0KiB time=00:00:00.96 bitrate=   0.4kbits/s speed=0.00558x elapsed=0:02:53.21    \nframe=  118 fps=0.7 q=49.0 size=       0KiB time=00:00:00.96 bitrate=   0.4kbits/s speed=0.00556x elapsed=0:02:53.73    \nframe=  119 fps=0.7 q=43.8 size=       0KiB time=00:00:00.97 bitrate=   0.4kbits/s speed=0.0056x elapsed=0:02:54.24    \nframe=  119 fps=0.7 q=43.8 size=       0KiB time=00:00:00.97 bitrate=   0.4kbits/s speed=0.00558x elapsed=0:02:54.77    \nframe=  120 fps=0.7 q=46.6 size=       0KiB time=00:00:00.98 bitrate=   0.4kbits/s speed=0.00561x elapsed=0:02:55.29    \nframe=  120 fps=0.7 q=46.6 size=       0KiB time=00:00:00.98 bitrate=   0.4kbits/s speed=0.00559x elapsed=0:02:55.81    \nframe=  120 fps=0.7 q=46.6 size=       0KiB time=00:00:00.98 bitrate=   0.4kbits/s speed=0.00558x elapsed=0:02:56.32    \nframe=  120 fps=0.7 q=46.6 size=       0KiB time=00:00:00.98 bitrate=   0.4kbits/s speed=0.00556x elapsed=0:02:56.83    \nframe=  120 fps=0.7 q=46.6 size=       0KiB time=00:00:00.98 bitrate=   0.4kbits/s speed=0.00554x elapsed=0:02:57.36    \nframe=  121 fps=0.7 q=48.9 size=       0KiB time=00:00:00.99 bitrate=   0.4kbits/s speed=0.00558x elapsed=0:02:57.87    \nframe=  121 fps=0.7 q=48.9 size=       0KiB time=00:00:00.99 bitrate=   0.4kbits/s speed=0.00556x elapsed=0:02:58.39    \nframe=  122 fps=0.7 q=48.9 size=       0KiB time=00:00:01.00 bitrate=   0.4kbits/s speed=0.00559x elapsed=0:02:58.90    \nframe=  122 fps=0.7 q=48.9 size=       0KiB time=00:00:01.00 bitrate=   0.4kbits/s speed=0.00557x elapsed=0:02:59.42    \nframe=  122 fps=0.7 q=48.9 size=       0KiB time=00:00:01.00 bitrate=   0.4kbits/s speed=0.00556x elapsed=0:02:59.93    \nframe=  122 fps=0.7 q=48.9 size=       0KiB time=00:00:01.00 bitrate=   0.4kbits/s speed=0.00554x elapsed=0:03:00.45    \nframe=  123 fps=0.7 q=43.5 size=       0KiB time=00:00:01.00 bitrate=   0.3kbits/s speed=0.00557x elapsed=0:03:00.96    \nframe=  123 fps=0.7 q=43.5 size=       0KiB time=00:00:01.00 bitrate=   0.3kbits/s speed=0.00556x elapsed=0:03:01.48    \nframe=  124 fps=0.7 q=47.0 size=       0KiB time=00:00:01.01 bitrate=   0.3kbits/s speed=0.00559x elapsed=0:03:01.99    \nframe=  124 fps=0.7 q=47.0 size=       0KiB time=00:00:01.01 bitrate=   0.3kbits/s speed=0.00557x elapsed=0:03:02.51    \nframe=  124 fps=0.7 q=47.0 size=       0KiB time=00:00:01.01 bitrate=   0.3kbits/s speed=0.00555x elapsed=0:03:03.03    \nframe=  124 fps=0.7 q=47.0 size=       0KiB time=00:00:01.01 bitrate=   0.3kbits/s speed=0.00554x elapsed=0:03:03.55    \nframe=  125 fps=0.7 q=48.7 size=       0KiB time=00:00:01.02 bitrate=   0.3kbits/s speed=0.00557x elapsed=0:03:04.08    \nframe=  125 fps=0.7 q=48.7 size=       0KiB time=00:00:01.02 bitrate=   0.3kbits/s speed=0.00555x elapsed=0:03:04.61    \nframe=  126 fps=0.7 q=48.7 size=       0KiB time=00:00:01.03 bitrate=   0.3kbits/s speed=0.00558x elapsed=0:03:05.12    \nframe=  126 fps=0.7 q=48.7 size=       0KiB time=00:00:01.03 bitrate=   0.3kbits/s speed=0.00557x elapsed=0:03:05.64    \nframe=  126 fps=0.7 q=48.7 size=       0KiB time=00:00:01.03 bitrate=   0.3kbits/s speed=0.00555x elapsed=0:03:06.15    \nframe=  126 fps=0.7 q=48.7 size=       0KiB time=00:00:01.03 bitrate=   0.3kbits/s speed=0.00554x elapsed=0:03:06.67    \nframe=  126 fps=0.7 q=48.7 size=       0KiB time=00:00:01.03 bitrate=   0.3kbits/s speed=0.00552x elapsed=0:03:07.18    \nframe=  126 fps=0.7 q=48.7 size=       0KiB time=00:00:01.03 bitrate=   0.3kbits/s speed=0.00551x elapsed=0:03:07.70    \nframe=  126 fps=0.7 q=48.7 size=       0KiB time=00:00:01.03 bitrate=   0.3kbits/s speed=0.00549x elapsed=0:03:08.21    \nframe=  127 fps=0.7 q=43.1 size=       0KiB time=00:00:01.04 bitrate=   0.3kbits/s speed=0.00552x elapsed=0:03:08.73    \nframe=  127 fps=0.7 q=43.1 size=       0KiB time=00:00:01.04 bitrate=   0.3kbits/s speed=0.0055x elapsed=0:03:09.25    \nframe=  128 fps=0.7 q=47.0 size=       0KiB time=00:00:01.05 bitrate=   0.3kbits/s speed=0.00553x elapsed=0:03:09.77    \nframe=  128 fps=0.7 q=47.0 size=       0KiB time=00:00:01.05 bitrate=   0.3kbits/s speed=0.00552x elapsed=0:03:10.27    \nframe=  128 fps=0.7 q=47.0 size=       0KiB time=00:00:01.05 bitrate=   0.3kbits/s speed=0.0055x elapsed=0:03:10.79    \nframe=  128 fps=0.7 q=47.0 size=       0KiB time=00:00:01.05 bitrate=   0.3kbits/s speed=0.00549x elapsed=0:03:11.31    \nframe=  128 fps=0.7 q=47.0 size=       0KiB time=00:00:01.05 bitrate=   0.3kbits/s speed=0.00547x elapsed=0:03:11.83    \nframe=  129 fps=0.7 q=49.0 size=       0KiB time=00:00:01.05 bitrate=   0.3kbits/s speed=0.0055x elapsed=0:03:12.34    \nframe=  130 fps=0.7 q=48.8 size=       0KiB time=00:00:01.06 bitrate=   0.3kbits/s speed=0.00553x elapsed=0:03:12.85    \nframe=  130 fps=0.7 q=48.8 size=       0KiB time=00:00:01.06 bitrate=   0.3kbits/s speed=0.00552x elapsed=0:03:13.36    \nframe=  130 fps=0.7 q=48.8 size=       0KiB time=00:00:01.06 bitrate=   0.3kbits/s speed=0.0055x elapsed=0:03:13.89    \nframe=  130 fps=0.7 q=48.8 size=       0KiB time=00:00:01.06 bitrate=   0.3kbits/s speed=0.00549x elapsed=0:03:14.40    \nframe=  130 fps=0.7 q=48.8 size=       0KiB time=00:00:01.06 bitrate=   0.3kbits/s speed=0.00547x elapsed=0:03:14.92    \nframe=  130 fps=0.7 q=48.8 size=       0KiB time=00:00:01.06 bitrate=   0.3kbits/s speed=0.00546x elapsed=0:03:15.43    \nframe=  130 fps=0.7 q=48.8 size=       0KiB time=00:00:01.06 bitrate=   0.3kbits/s speed=0.00544x elapsed=0:03:15.95    \nframe=  131 fps=0.7 q=43.6 size=       0KiB time=00:00:01.07 bitrate=   0.3kbits/s speed=0.00547x elapsed=0:03:16.46    \nframe=  131 fps=0.7 q=43.6 size=       0KiB time=00:00:01.07 bitrate=   0.3kbits/s speed=0.00546x elapsed=0:03:16.98    \nframe=  131 fps=0.7 q=43.6 size=       0KiB time=00:00:01.07 bitrate=   0.3kbits/s speed=0.00544x elapsed=0:03:17.49    \nframe=  132 fps=0.7 q=46.9 size=       0KiB time=00:00:01.08 bitrate=   0.3kbits/s speed=0.00547x elapsed=0:03:18.01    \nframe=  132 fps=0.7 q=46.9 size=       0KiB time=00:00:01.08 bitrate=   0.3kbits/s speed=0.00546x elapsed=0:03:18.53    \nframe=  132 fps=0.7 q=46.9 size=       0KiB time=00:00:01.08 bitrate=   0.3kbits/s speed=0.00544x elapsed=0:03:19.04    \nframe=  133 fps=0.7 q=48.8 size=     256KiB time=00:00:01.09 bitrate=1921.4kbits/s speed=0.00547x elapsed=0:03:19.56    \nframe=  133 fps=0.7 q=48.8 size=     256KiB time=00:00:01.09 bitrate=1921.4kbits/s speed=0.00546x elapsed=0:03:20.08    \nframe=  133 fps=0.7 q=48.8 size=     256KiB time=00:00:01.09 bitrate=1921.4kbits/s speed=0.00544x elapsed=0:03:20.59    \nframe=  134 fps=0.7 q=48.7 size=     256KiB time=00:00:01.10 bitrate=1906.8kbits/s speed=0.00547x elapsed=0:03:21.10    \nframe=  134 fps=0.7 q=48.7 size=     256KiB time=00:00:01.10 bitrate=1906.8kbits/s speed=0.00546x elapsed=0:03:21.62    \nframe=  134 fps=0.7 q=48.7 size=     256KiB time=00:00:01.10 bitrate=1906.8kbits/s speed=0.00544x elapsed=0:03:22.13    \nframe=  134 fps=0.7 q=48.7 size=     256KiB time=00:00:01.10 bitrate=1906.8kbits/s speed=0.00543x elapsed=0:03:22.65    \nframe=  135 fps=0.7 q=43.5 size=     256KiB time=00:00:01.10 bitrate=1892.5kbits/s speed=0.00546x elapsed=0:03:23.17    \nframe=  136 fps=0.7 q=47.1 size=     256KiB time=00:00:01.11 bitrate=1878.4kbits/s speed=0.00548x elapsed=0:03:23.68    \nframe=  137 fps=0.7 q=48.9 size=     256KiB time=00:00:01.12 bitrate=1864.4kbits/s speed=0.00551x elapsed=0:03:24.20    \nframe=  138 fps=0.7 q=48.8 size=     256KiB time=00:00:01.13 bitrate=1850.7kbits/s speed=0.00554x elapsed=0:03:24.71    \nframe=  138 fps=0.7 q=48.8 size=     256KiB time=00:00:01.13 bitrate=1850.7kbits/s speed=0.00552x elapsed=0:03:25.23    \nframe=  139 fps=0.7 q=43.8 size=     256KiB time=00:00:01.14 bitrate=1837.2kbits/s speed=0.00555x elapsed=0:03:25.74    \nframe=  140 fps=0.7 q=46.7 size=     256KiB time=00:00:01.15 bitrate=1823.9kbits/s speed=0.00558x elapsed=0:03:26.26    \nframe=  140 fps=0.7 q=46.7 size=     256KiB time=00:00:01.15 bitrate=1823.9kbits/s speed=0.00556x elapsed=0:03:26.78    \nframe=  141 fps=0.7 q=48.8 size=     256KiB time=00:00:01.15 bitrate=1810.8kbits/s speed=0.00559x elapsed=0:03:27.30    \nframe=  142 fps=0.7 q=48.9 size=     256KiB time=00:00:01.16 bitrate=1797.9kbits/s speed=0.00561x elapsed=0:03:27.81    \nframe=  142 fps=0.7 q=48.9 size=     256KiB time=00:00:01.16 bitrate=1797.9kbits/s speed=0.0056x elapsed=0:03:28.32    \nframe=  144 fps=0.7 q=46.9 size=     256KiB time=00:00:01.18 bitrate=1772.5kbits/s speed=0.00567x elapsed=0:03:28.84    \nframe=  145 fps=0.7 q=48.8 size=     256KiB time=00:00:01.19 bitrate=1760.1kbits/s speed=0.00569x elapsed=0:03:29.37    \nframe=  146 fps=0.7 q=48.8 size=     256KiB time=00:00:01.20 bitrate=1747.9kbits/s speed=0.00572x elapsed=0:03:29.90    \nframe=  147 fps=0.7 q=43.4 size=     256KiB time=00:00:01.20 bitrate=1735.9kbits/s speed=0.00574x elapsed=0:03:30.43    \nframe=  149 fps=0.7 q=48.6 size=     256KiB time=00:00:01.22 bitrate=1712.2kbits/s speed=0.00581x elapsed=0:03:30.95    \nframe=  150 fps=0.7 q=48.9 size=     256KiB time=00:00:01.23 bitrate=1700.7kbits/s speed=0.00583x elapsed=0:03:31.47    \nframe=  152 fps=0.7 q=46.7 size=     256KiB time=00:00:01.25 bitrate=1678.0kbits/s speed=0.0059x elapsed=0:03:32.00    \nframe=  153 fps=0.7 q=49.0 size=     256KiB time=00:00:01.25 bitrate=1666.9kbits/s speed=0.00592x elapsed=0:03:32.51    \nframe=  155 fps=0.7 q=43.2 size=     256KiB time=00:00:01.27 bitrate=1645.1kbits/s speed=0.00599x elapsed=0:03:33.02    \nframe=  156 fps=0.7 q=47.0 size=     256KiB time=00:00:01.28 bitrate=1634.4kbits/s speed=0.00601x elapsed=0:03:33.55    \nframe=  158 fps=0.7 q=48.9 size=     256KiB time=00:00:01.30 bitrate=1613.5kbits/s speed=0.00607x elapsed=0:03:34.06    \nframe=  159 fps=0.7 q=43.6 size=     256KiB time=00:00:01.30 bitrate=1603.2kbits/s speed=0.0061x elapsed=0:03:34.57    \nframe=  160 fps=0.7 q=46.7 size=     256KiB time=00:00:01.31 bitrate=1593.0kbits/s speed=0.00612x elapsed=0:03:35.09    \nframe=  160 fps=0.7 q=46.7 size=     256KiB time=00:00:01.31 bitrate=1593.0kbits/s speed=0.00611x elapsed=0:03:35.61    \nframe=  162 fps=0.7 q=48.9 size=     256KiB time=00:00:01.33 bitrate=1573.1kbits/s speed=0.00617x elapsed=0:03:36.12    \nframe=  162 fps=0.7 q=48.9 size=     256KiB time=00:00:01.33 bitrate=1573.1kbits/s speed=0.00615x elapsed=0:03:36.63    \nframe=  164 fps=0.8 q=47.3 size=     256KiB time=00:00:01.35 bitrate=1553.7kbits/s speed=0.00622x elapsed=0:03:37.15    \nframe=  164 fps=0.8 q=47.3 size=     256KiB time=00:00:01.35 bitrate=1553.7kbits/s speed=0.0062x elapsed=0:03:37.66    \nframe=  166 fps=0.8 q=49.0 size=     256KiB time=00:00:01.36 bitrate=1534.8kbits/s speed=0.00626x elapsed=0:03:38.18    \nframe=  166 fps=0.8 q=49.0 size=     256KiB time=00:00:01.36 bitrate=1534.8kbits/s speed=0.00625x elapsed=0:03:38.70    \nframe=  167 fps=0.8 q=43.3 size=     256KiB time=00:00:01.37 bitrate=1525.5kbits/s speed=0.00627x elapsed=0:03:39.21    \nframe=  168 fps=0.8 q=47.4 size=     256KiB time=00:00:01.38 bitrate=1516.3kbits/s speed=0.0063x elapsed=0:03:39.73    \nframe=  170 fps=0.8 q=48.9 size=     256KiB time=00:00:01.40 bitrate=1498.2kbits/s speed=0.00636x elapsed=0:03:40.24    \nframe=  170 fps=0.8 q=48.9 size=     256KiB time=00:00:01.40 bitrate=1498.2kbits/s speed=0.00634x elapsed=0:03:40.76    \nframe=  172 fps=0.8 q=47.3 size=     256KiB time=00:00:01.41 bitrate=1480.6kbits/s speed=0.0064x elapsed=0:03:41.28    \nframe=  173 fps=0.8 q=48.9 size=     256KiB time=00:00:01.42 bitrate=1471.9kbits/s speed=0.00642x elapsed=0:03:41.79    \nframe=  174 fps=0.8 q=49.0 size=     256KiB time=00:00:01.43 bitrate=1463.4kbits/s speed=0.00645x elapsed=0:03:42.31    \nframe=  175 fps=0.8 q=43.7 size=     256KiB time=00:00:01.44 bitrate=1454.9kbits/s speed=0.00647x elapsed=0:03:42.82    \nframe=  176 fps=0.8 q=47.5 size=     256KiB time=00:00:01.45 bitrate=1446.6kbits/s speed=0.00649x elapsed=0:03:43.34    \nframe=  178 fps=0.8 q=49.0 size=     256KiB time=00:00:01.46 bitrate=1430.1kbits/s speed=0.00655x elapsed=0:03:43.85    \nframe=  178 fps=0.8 q=49.0 size=     256KiB time=00:00:01.46 bitrate=1430.1kbits/s speed=0.00654x elapsed=0:03:44.36    \nframe=  180 fps=0.8 q=47.2 size=     256KiB time=00:00:01.48 bitrate=1414.0kbits/s speed=0.0066x elapsed=0:03:44.89    \nframe=  181 fps=0.8 q=49.0 size=     256KiB time=00:00:01.49 bitrate=1406.1kbits/s speed=0.00662x elapsed=0:03:45.40    \nframe=  182 fps=0.8 q=49.0 size=     256KiB time=00:00:01.50 bitrate=1398.3kbits/s speed=0.00664x elapsed=0:03:45.91    \nframe=  183 fps=0.8 q=43.4 size=     256KiB time=00:00:01.50 bitrate=1390.6kbits/s speed=0.00666x elapsed=0:03:46.43    \nframe=  184 fps=0.8 q=47.2 size=     256KiB time=00:00:01.51 bitrate=1383.0kbits/s speed=0.00668x elapsed=0:03:46.94    \nframe=  185 fps=0.8 q=49.0 size=     256KiB time=00:00:01.52 bitrate=1375.4kbits/s speed=0.0067x elapsed=0:03:47.46    \nframe=  186 fps=0.8 q=49.0 size=     256KiB time=00:00:01.53 bitrate=1367.9kbits/s speed=0.00673x elapsed=0:03:47.98    \nframe=  188 fps=0.8 q=47.2 size=     256KiB time=00:00:01.55 bitrate=1353.2kbits/s speed=0.00678x elapsed=0:03:48.49    \nframe=  189 fps=0.8 q=48.9 size=     256KiB time=00:00:01.55 bitrate=1346.0kbits/s speed=0.0068x elapsed=0:03:49.01    \nframe=  190 fps=0.8 q=48.9 size=     256KiB time=00:00:01.56 bitrate=1338.8kbits/s speed=0.00683x elapsed=0:03:49.53    \nframe=  191 fps=0.8 q=43.3 size=     256KiB time=00:00:01.57 bitrate=1331.7kbits/s speed=0.00685x elapsed=0:03:50.04    \nframe=  192 fps=0.8 q=47.1 size=     256KiB time=00:00:01.58 bitrate=1324.7kbits/s speed=0.00687x elapsed=0:03:50.55    \nframe=  193 fps=0.8 q=49.0 size=     256KiB time=00:00:01.59 bitrate=1317.8kbits/s speed=0.00689x elapsed=0:03:51.07    \nframe=  194 fps=0.8 q=49.0 size=     256KiB time=00:00:01.60 bitrate=1310.9kbits/s speed=0.00691x elapsed=0:03:51.59    \nframe=  195 fps=0.8 q=43.4 size=     256KiB time=00:00:01.60 bitrate=1304.1kbits/s speed=0.00693x elapsed=0:03:52.10    \nframe=  196 fps=0.8 q=47.2 size=     256KiB time=00:00:01.61 bitrate=1297.4kbits/s speed=0.00695x elapsed=0:03:52.62    \nframe=  197 fps=0.8 q=49.0 size=     256KiB time=00:00:01.62 bitrate=1290.8kbits/s speed=0.00697x elapsed=0:03:53.13    \nframe=  198 fps=0.8 q=49.0 size=     256KiB time=00:00:01.63 bitrate=1284.2kbits/s speed=0.00699x elapsed=0:03:53.66    \nframe=  200 fps=0.9 q=47.0 size=     256KiB time=00:00:01.65 bitrate=1271.2kbits/s speed=0.00705x elapsed=0:03:54.17    \nframe=  201 fps=0.9 q=49.0 size=     256KiB time=00:00:01.65 bitrate=1264.8kbits/s speed=0.00707x elapsed=0:03:54.68    \nframe=  202 fps=0.9 q=48.9 size=     256KiB time=00:00:01.66 bitrate=1258.5kbits/s speed=0.00709x elapsed=0:03:55.20    \nframe=  203 fps=0.9 q=43.6 size=     256KiB time=00:00:01.67 bitrate=1252.2kbits/s speed=0.00711x elapsed=0:03:55.72    \nframe=  204 fps=0.9 q=47.1 size=     256KiB time=00:00:01.68 bitrate=1246.0kbits/s speed=0.00713x elapsed=0:03:56.23    \nframe=  206 fps=0.9 q=49.0 size=     256KiB time=00:00:01.70 bitrate=1233.8kbits/s speed=0.00718x elapsed=0:03:56.75    \nframe=  206 fps=0.9 q=49.0 size=     256KiB time=00:00:01.70 bitrate=1233.8kbits/s speed=0.00716x elapsed=0:03:57.27    \nframe=  208 fps=0.9 q=47.2 size=     256KiB time=00:00:01.71 bitrate=1221.8kbits/s speed=0.00722x elapsed=0:03:57.80    \nframe=  209 fps=0.9 q=49.0 size=     256KiB time=00:00:01.72 bitrate=1215.9kbits/s speed=0.00724x elapsed=0:03:58.31    \nframe=  210 fps=0.9 q=49.0 size=     256KiB time=00:00:01.73 bitrate=1210.1kbits/s speed=0.00726x elapsed=0:03:58.82    \nframe=  212 fps=0.9 q=47.4 size=     256KiB time=00:00:01.75 bitrate=1198.6kbits/s speed=0.00731x elapsed=0:03:59.34    \nframe=  212 fps=0.9 q=47.4 size=     256KiB time=00:00:01.75 bitrate=1198.6kbits/s speed=0.0073x elapsed=0:03:59.85    \nframe=  214 fps=0.9 q=49.0 size=     256KiB time=00:00:01.76 bitrate=1187.3kbits/s speed=0.00735x elapsed=0:04:00.37    \nframe=  215 fps=0.9 q=43.6 size=     256KiB time=00:00:01.77 bitrate=1181.7kbits/s speed=0.00737x elapsed=0:04:00.89    \nframe=  216 fps=0.9 q=47.1 size=     256KiB time=00:00:01.78 bitrate=1176.2kbits/s speed=0.00739x elapsed=0:04:01.41    \nframe=  217 fps=0.9 q=49.0 size=     256KiB time=00:00:01.79 bitrate=1170.7kbits/s speed=0.00741x elapsed=0:04:01.92    \nframe=  218 fps=0.9 q=49.0 size=     256KiB time=00:00:01.80 bitrate=1165.3kbits/s speed=0.00742x elapsed=0:04:02.43    \nframe=  219 fps=0.9 q=43.4 size=     256KiB time=00:00:01.80 bitrate=1159.9kbits/s speed=0.00744x elapsed=0:04:02.95    \nframe=  220 fps=0.9 q=47.3 size=     256KiB time=00:00:01.81 bitrate=1154.6kbits/s speed=0.00746x elapsed=0:04:03.46    \nframe=  222 fps=0.9 q=49.0 size=     256KiB time=00:00:01.83 bitrate=1144.1kbits/s speed=0.00751x elapsed=0:04:03.98    \nframe=  222 fps=0.9 q=49.0 size=     256KiB time=00:00:01.83 bitrate=1144.1kbits/s speed=0.0075x elapsed=0:04:04.49    \nframe=  224 fps=0.9 q=47.2 size=     256KiB time=00:00:01.85 bitrate=1133.8kbits/s speed=0.00755x elapsed=0:04:05.01    \nframe=  225 fps=0.9 q=49.0 size=     256KiB time=00:00:01.85 bitrate=1128.7kbits/s speed=0.00757x elapsed=0:04:05.52    \nframe=  226 fps=0.9 q=49.1 size=     256KiB time=00:00:01.86 bitrate=1123.7kbits/s speed=0.00759x elapsed=0:04:06.04    \nframe=  227 fps=0.9 q=43.6 size=     256KiB time=00:00:01.87 bitrate=1118.7kbits/s speed=0.0076x elapsed=0:04:06.55    \nframe=  228 fps=0.9 q=47.2 size=     256KiB time=00:00:01.88 bitrate=1113.7kbits/s speed=0.00762x elapsed=0:04:07.07    \nframe=  229 fps=0.9 q=49.0 size=     256KiB time=00:00:01.89 bitrate=1108.8kbits/s speed=0.00764x elapsed=0:04:07.59    \nframe=  230 fps=0.9 q=49.0 size=     256KiB time=00:00:01.90 bitrate=1103.9kbits/s speed=0.00766x elapsed=0:04:08.11    \nframe=  230 fps=0.9 q=49.0 size=     256KiB time=00:00:01.90 bitrate=1103.9kbits/s speed=0.00764x elapsed=0:04:08.61    \nframe=  232 fps=0.9 q=47.2 size=     256KiB time=00:00:01.91 bitrate=1094.3kbits/s speed=0.00769x elapsed=0:04:09.13    \nframe=  233 fps=0.9 q=49.0 size=     256KiB time=00:00:01.92 bitrate=1089.6kbits/s speed=0.00771x elapsed=0:04:09.65    \nframe=  235 fps=0.9 q=44.0 size=     256KiB time=00:00:01.94 bitrate=1080.3kbits/s speed=0.00776x elapsed=0:04:10.17    \nframe=  236 fps=0.9 q=47.1 size=     256KiB time=00:00:01.95 bitrate=1075.6kbits/s speed=0.00778x elapsed=0:04:10.68    \nframe=  238 fps=0.9 q=49.0 size=     256KiB time=00:00:01.96 bitrate=1066.5kbits/s speed=0.00783x elapsed=0:04:11.19    \nframe=  239 fps=0.9 q=43.9 size=     256KiB time=00:00:01.97 bitrate=1062.0kbits/s speed=0.00785x elapsed=0:04:11.71    \nframe=  242 fps=1.0 q=48.9 size=     256KiB time=00:00:02.00 bitrate=1048.8kbits/s speed=0.00793x elapsed=0:04:12.23    \nframe=  242 fps=1.0 q=48.9 size=     256KiB time=00:00:02.00 bitrate=1048.8kbits/s speed=0.00791x elapsed=0:04:12.75    \nframe=  244 fps=1.0 q=47.1 size=     256KiB time=00:00:02.01 bitrate=1040.1kbits/s speed=0.00796x elapsed=0:04:13.26    \nframe=  246 fps=1.0 q=48.8 size=     256KiB time=00:00:02.03 bitrate=1031.6kbits/s speed=0.00801x elapsed=0:04:13.77    \nframe=  247 fps=1.0 q=43.4 size=     256KiB time=00:00:02.04 bitrate=1027.3kbits/s speed=0.00803x elapsed=0:04:14.29    \nframe=  248 fps=1.0 q=47.1 size=     256KiB time=00:00:02.05 bitrate=1023.2kbits/s speed=0.00805x elapsed=0:04:14.80    \nframe=  249 fps=1.0 q=49.0 size=     256KiB time=00:00:02.05 bitrate=1019.0kbits/s speed=0.00806x elapsed=0:04:15.32    \nframe=  251 fps=1.0 q=41.1 size=     256KiB time=00:00:02.07 bitrate=1010.8kbits/s speed=0.00811x elapsed=0:04:15.83    \nframe=  252 fps=1.0 q=43.9 size=     512KiB time=00:00:02.08 bitrate=2013.4kbits/s speed=0.00813x elapsed=0:04:16.36    \nframe=  253 fps=1.0 q=46.2 size=     512KiB time=00:00:02.09 bitrate=2005.4kbits/s speed=0.00814x elapsed=0:04:16.87    \nframe=  256 fps=1.0 q=49.0 size=     512KiB time=00:00:02.11 bitrate=1981.7kbits/s speed=0.00822x elapsed=0:04:17.39    \nframe=  257 fps=1.0 q=44.0 size=     512KiB time=00:00:02.12 bitrate=1974.0kbits/s speed=0.00824x elapsed=0:04:17.90    \nframe=  259 fps=1.0 q=49.0 size=     512KiB time=00:00:02.14 bitrate=1958.6kbits/s speed=0.00829x elapsed=0:04:18.41    \nframe=  260 fps=1.0 q=49.0 size=     512KiB time=00:00:02.15 bitrate=1951.0kbits/s speed=0.0083x elapsed=0:04:18.93    \nframe=  261 fps=1.0 q=43.8 size=     512KiB time=00:00:02.15 bitrate=1943.5kbits/s speed=0.00832x elapsed=0:04:19.46    \nframe=  262 fps=1.0 q=45.5 size=     512KiB time=00:00:02.16 bitrate=1936.0kbits/s speed=0.00833x elapsed=0:04:19.96    \nframe=  264 fps=1.0 q=48.9 size=     512KiB time=00:00:02.18 bitrate=1921.2kbits/s speed=0.00838x elapsed=0:04:20.47    \nframe=  265 fps=1.0 q=49.0 size=     512KiB time=00:00:02.19 bitrate=1913.9kbits/s speed=0.0084x elapsed=0:04:20.99    \nframe=  267 fps=1.0 q=46.9 size=     512KiB time=00:00:02.20 bitrate=1899.5kbits/s speed=0.00844x elapsed=0:04:21.51    \nframe=  269 fps=1.0 q=49.0 size=     512KiB time=00:00:02.22 bitrate=1885.2kbits/s speed=0.00849x elapsed=0:04:22.03    \nframe=  270 fps=1.0 q=43.7 size=     512KiB time=00:00:02.23 bitrate=1878.2kbits/s speed=0.00851x elapsed=0:04:22.54    \nframe=  271 fps=1.0 q=47.2 size=     512KiB time=00:00:02.24 bitrate=1871.2kbits/s speed=0.00852x elapsed=0:04:23.06    \nframe=  273 fps=1.0 q=49.0 size=     512KiB time=00:00:02.25 bitrate=1857.4kbits/s speed=0.00857x elapsed=0:04:23.57    \nframe=  275 fps=1.0 q=47.0 size=     512KiB time=00:00:02.27 bitrate=1843.8kbits/s speed=0.00861x elapsed=0:04:24.09    \nframe=  277 fps=1.0 q=49.0 size=     512KiB time=00:00:02.29 bitrate=1830.4kbits/s speed=0.00866x elapsed=0:04:24.60    \nframe=  277 fps=1.0 q=49.0 size=     512KiB time=00:00:02.29 bitrate=1830.4kbits/s speed=0.00864x elapsed=0:04:25.11    \nframe=  279 fps=1.1 q=47.2 size=     512KiB time=00:00:02.30 bitrate=1817.2kbits/s speed=0.00869x elapsed=0:04:25.64    \nframe=  281 fps=1.1 q=49.0 size=     512KiB time=00:00:02.32 bitrate=1804.2kbits/s speed=0.00874x elapsed=0:04:26.15    \nframe=  282 fps=1.1 q=43.5 size=     512KiB time=00:00:02.33 bitrate=1797.7kbits/s speed=0.00875x elapsed=0:04:26.67    \nframe=  285 fps=1.1 q=49.9 size=     512KiB time=00:00:02.35 bitrate=1778.7kbits/s speed=0.00883x elapsed=0:04:27.18    \nframe=  285 fps=1.1 q=49.9 size=     512KiB time=00:00:02.35 bitrate=1778.7kbits/s speed=0.00881x elapsed=0:04:27.69    \nframe=  287 fps=1.1 q=47.2 size=     512KiB time=00:00:02.37 bitrate=1766.2kbits/s speed=0.00885x elapsed=0:04:28.21    \nframe=  289 fps=1.1 q=49.9 size=     512KiB time=00:00:02.39 bitrate=1753.9kbits/s speed=0.0089x elapsed=0:04:28.73    \nframe=  290 fps=1.1 q=43.8 size=     512KiB time=00:00:02.40 bitrate=1747.8kbits/s speed=0.00891x elapsed=0:04:29.24    \nframe=  292 fps=1.1 q=49.8 size=     512KiB time=00:00:02.41 bitrate=1735.7kbits/s speed=0.00896x elapsed=0:04:29.76    \nframe=  293 fps=1.1 q=49.9 size=     512KiB time=00:00:02.42 bitrate=1729.8kbits/s speed=0.00897x elapsed=0:04:30.28    \nframe=  295 fps=1.1 q=47.5 size=     512KiB time=00:00:02.44 bitrate=1717.9kbits/s speed=0.00902x elapsed=0:04:30.79    \nframe=  297 fps=1.1 q=50.0 size=     512KiB time=00:00:02.45 bitrate=1706.3kbits/s speed=0.00906x elapsed=0:04:31.31    \nframe=  298 fps=1.1 q=44.1 size=     512KiB time=00:00:02.46 bitrate=1700.5kbits/s speed=0.00907x elapsed=0:04:31.83    \nframe=  300 fps=1.1 q=49.9 size=     512KiB time=00:00:02.48 bitrate=1689.1kbits/s speed=0.00912x elapsed=0:04:32.34    \nframe=  301 fps=1.1 q=49.8 size=     512KiB time=00:00:02.49 bitrate=1683.5kbits/s speed=0.00913x elapsed=0:04:32.86    \nframe=  303 fps=1.1 q=47.1 size=     512KiB time=00:00:02.50 bitrate=1672.3kbits/s speed=0.00918x elapsed=0:04:33.36    \nframe=  305 fps=1.1 q=49.7 size=     512KiB time=00:00:02.52 bitrate=1661.2kbits/s speed=0.00922x elapsed=0:04:33.88    \nframe=  306 fps=1.1 q=43.9 size=     512KiB time=00:00:02.53 bitrate=1655.8kbits/s speed=0.00923x elapsed=0:04:34.40    \nframe=  308 fps=1.1 q=49.7 size=     512KiB time=00:00:02.55 bitrate=1645.0kbits/s speed=0.00928x elapsed=0:04:34.92    \nframe=  309 fps=1.1 q=50.0 size=     512KiB time=00:00:02.55 bitrate=1639.6kbits/s speed=0.00929x elapsed=0:04:35.43    \nframe=  311 fps=1.1 q=47.4 size=     512KiB time=00:00:02.57 bitrate=1629.0kbits/s speed=0.00933x elapsed=0:04:35.95    \nframe=  313 fps=1.1 q=49.9 size=     512KiB time=00:00:02.59 bitrate=1618.5kbits/s speed=0.00937x elapsed=0:04:36.46    \nframe=  314 fps=1.1 q=44.9 size=     512KiB time=00:00:02.60 bitrate=1613.3kbits/s speed=0.00939x elapsed=0:04:36.98    \nframe=  317 fps=1.1 q=50.0 size=     512KiB time=00:00:02.62 bitrate=1598.0kbits/s speed=0.00946x elapsed=0:04:37.49    \nframe=  318 fps=1.1 q=44.2 size=     512KiB time=00:00:02.63 bitrate=1592.9kbits/s speed=0.00947x elapsed=0:04:38.01    \nframe=  319 fps=1.1 q=48.2 size=     512KiB time=00:00:02.64 bitrate=1587.9kbits/s speed=0.00948x elapsed=0:04:38.53    \nframe=  321 fps=1.2 q=50.0 size=     512KiB time=00:00:02.65 bitrate=1577.9kbits/s speed=0.00953x elapsed=0:04:39.05    \nframe=  323 fps=1.2 q=48.2 size=     512KiB time=00:00:02.67 bitrate=1568.1kbits/s speed=0.00957x elapsed=0:04:39.55    \nframe=  325 fps=1.2 q=50.0 size=     512KiB time=00:00:02.69 bitrate=1558.4kbits/s speed=0.00961x elapsed=0:04:40.08    \nframe=  326 fps=1.2 q=44.8 size=     512KiB time=00:00:02.70 bitrate=1553.6kbits/s speed=0.00962x elapsed=0:04:40.58    \nframe=  328 fps=1.2 q=50.0 size=     512KiB time=00:00:02.71 bitrate=1544.0kbits/s speed=0.00966x elapsed=0:04:41.10    \nframe=  329 fps=1.2 q=49.9 size=     512KiB time=00:00:02.72 bitrate=1539.3kbits/s speed=0.00968x elapsed=0:04:41.62    \nframe=  331 fps=1.2 q=47.9 size=     512KiB time=00:00:02.74 bitrate=1530.0kbits/s speed=0.00972x elapsed=0:04:42.13    \nframe=  333 fps=1.2 q=49.9 size=     512KiB time=00:00:02.75 bitrate=1520.7kbits/s speed=0.00976x elapsed=0:04:42.65    \nframe=  334 fps=1.2 q=44.3 size=     512KiB time=00:00:02.76 bitrate=1516.1kbits/s speed=0.00977x elapsed=0:04:43.16    \nframe=  336 fps=1.2 q=50.0 size=     512KiB time=00:00:02.78 bitrate=1507.1kbits/s speed=0.00981x elapsed=0:04:43.68    \nframe=  338 fps=1.2 q=44.5 size=     512KiB time=00:00:02.80 bitrate=1498.1kbits/s speed=0.00985x elapsed=0:04:44.20    \nframe=  340 fps=1.2 q=50.0 size=     512KiB time=00:00:02.81 bitrate=1489.2kbits/s speed=0.00989x elapsed=0:04:44.72    \nframe=  342 fps=1.2 q=44.6 size=     512KiB time=00:00:02.83 bitrate=1480.5kbits/s speed=0.00993x elapsed=0:04:45.23    \nframe=  343 fps=1.2 q=48.3 size=     512KiB time=00:00:02.84 bitrate=1476.1kbits/s speed=0.00994x elapsed=0:04:45.75    \nframe=  345 fps=1.2 q=50.0 size=     512KiB time=00:00:02.85 bitrate=1467.5kbits/s speed=0.00998x elapsed=0:04:46.26    \nframe=  347 fps=1.2 q=48.0 size=     512KiB time=00:00:02.87 bitrate=1459.0kbits/s speed=0.01x elapsed=0:04:46.77    \nframe=  349 fps=1.2 q=50.0 size=     512KiB time=00:00:02.89 bitrate=1450.6kbits/s speed=0.0101x elapsed=0:04:47.29    \nframe=  350 fps=1.2 q=44.5 size=     512KiB time=00:00:02.90 bitrate=1446.4kbits/s speed=0.0101x elapsed=0:04:47.81    \nframe=  351 fps=1.2 q=48.2 size=     512KiB time=00:00:02.90 bitrate=1442.3kbits/s speed=0.0101x elapsed=0:04:48.33    \nframe=  353 fps=1.2 q=50.0 size=     512KiB time=00:00:02.92 bitrate=1434.1kbits/s speed=0.0101x elapsed=0:04:48.83    \nframe=  354 fps=1.2 q=44.3 size=     512KiB time=00:00:02.93 bitrate=1430.0kbits/s speed=0.0101x elapsed=0:04:49.36    \nframe=  356 fps=1.2 q=49.9 size=     512KiB time=00:00:02.95 bitrate=1421.9kbits/s speed=0.0102x elapsed=0:04:49.87    \nframe=  357 fps=1.2 q=50.0 size=     512KiB time=00:00:02.95 bitrate=1417.9kbits/s speed=0.0102x elapsed=0:04:50.38    \nframe=  358 fps=1.2 q=44.9 size=     512KiB time=00:00:02.96 bitrate=1413.9kbits/s speed=0.0102x elapsed=0:04:50.90    \nframe=  360 fps=1.2 q=50.0 size=     512KiB time=00:00:02.98 bitrate=1406.0kbits/s speed=0.0102x elapsed=0:04:51.42    \nframe=  361 fps=1.2 q=49.9 size=     512KiB time=00:00:02.99 bitrate=1402.1kbits/s speed=0.0102x elapsed=0:04:51.93    \nframe=  363 fps=1.2 q=48.0 size=     512KiB time=00:00:03.00 bitrate=1394.3kbits/s speed=0.0103x elapsed=0:04:52.44    \nframe=  365 fps=1.2 q=50.0 size=     512KiB time=00:00:03.02 bitrate=1386.7kbits/s speed=0.0103x elapsed=0:04:52.96    \nframe=  366 fps=1.2 q=44.3 size=     512KiB time=00:00:03.03 bitrate=1382.9kbits/s speed=0.0103x elapsed=0:04:53.48    \nframe=  367 fps=1.2 q=48.2 size=     768KiB time=00:00:03.04 bitrate=2068.5kbits/s speed=0.0103x elapsed=0:04:53.99    \nframe=  369 fps=1.3 q=50.0 size=     768KiB time=00:00:03.05 bitrate=2057.3kbits/s speed=0.0104x elapsed=0:04:54.50    \nframe=  371 fps=1.3 q=48.1 size=     768KiB time=00:00:03.07 bitrate=2046.1kbits/s speed=0.0104x elapsed=0:04:55.03    \nframe=  372 fps=1.3 q=50.0 size=     768KiB time=00:00:03.08 bitrate=2040.6kbits/s speed=0.0104x elapsed=0:04:55.54    \nframe=  374 fps=1.3 q=44.4 size=     768KiB time=00:00:03.10 bitrate=2029.6kbits/s speed=0.0105x elapsed=0:04:56.06    \nframe=  375 fps=1.3 q=48.1 size=     768KiB time=00:00:03.10 bitrate=2024.2kbits/s speed=0.0105x elapsed=0:04:56.57    \nframe=  377 fps=1.3 q=50.0 size=     768KiB time=00:00:03.12 bitrate=2013.4kbits/s speed=0.0105x elapsed=0:04:57.09    \nframe=  379 fps=1.3 q=48.4 size=     768KiB time=00:00:03.14 bitrate=2002.7kbits/s speed=0.0106x elapsed=0:04:57.60    \nframe=  381 fps=1.3 q=50.0 size=     768KiB time=00:00:03.15 bitrate=1992.1kbits/s speed=0.0106x elapsed=0:04:58.12    \nframe=  382 fps=1.3 q=44.4 size=     768KiB time=00:00:03.16 bitrate=1986.9kbits/s speed=0.0106x elapsed=0:04:58.63    \nframe=  384 fps=1.3 q=50.0 size=     768KiB time=00:00:03.18 bitrate=1976.5kbits/s speed=0.0106x elapsed=0:04:59.15    \nframe=  385 fps=1.3 q=50.0 size=     768KiB time=00:00:03.19 bitrate=1971.3kbits/s speed=0.0107x elapsed=0:04:59.67    \nframe=  388 fps=1.3 q=50.0 size=     768KiB time=00:00:03.21 bitrate=1956.0kbits/s speed=0.0107x elapsed=0:05:00.18    \nframe=  389 fps=1.3 q=50.0 size=     768KiB time=00:00:03.22 bitrate=1950.9kbits/s speed=0.0107x elapsed=0:05:00.70    \nframe=  391 fps=1.3 q=48.2 size=     768KiB time=00:00:03.24 bitrate=1940.9kbits/s speed=0.0108x elapsed=0:05:01.22    \nframe=  393 fps=1.3 q=50.0 size=     768KiB time=00:00:03.25 bitrate=1931.0kbits/s speed=0.0108x elapsed=0:05:01.72    \nframe=  396 fps=1.3 q=50.0 size=     768KiB time=00:00:03.28 bitrate=1916.3kbits/s speed=0.0109x elapsed=0:05:02.25    \nframe=  398 fps=1.3 q=44.4 size=     768KiB time=00:00:03.30 bitrate=1906.6kbits/s speed=0.0109x elapsed=0:05:02.77    \nframe=  401 fps=1.3 q=49.9 size=     768KiB time=00:00:03.32 bitrate=1892.3kbits/s speed=0.011x elapsed=0:05:03.30    \nframe=  404 fps=1.3 q=50.0 size=     768KiB time=00:00:03.35 bitrate=1878.2kbits/s speed=0.011x elapsed=0:05:03.80    \nframe=  407 fps=1.3 q=48.2 size=     768KiB time=00:00:03.37 bitrate=1864.2kbits/s speed=0.0111x elapsed=0:05:04.32    \nframe=  409 fps=1.3 q=50.0 size=     768KiB time=00:00:03.39 bitrate=1855.1kbits/s speed=0.0111x elapsed=0:05:04.83    \nframe=  412 fps=1.3 q=50.0 size=     768KiB time=00:00:03.41 bitrate=1841.5kbits/s speed=0.0112x elapsed=0:05:05.35    \nframe=  415 fps=1.4 q=48.4 size=     768KiB time=00:00:03.44 bitrate=1828.1kbits/s speed=0.0113x elapsed=0:05:05.86    \nframe=  418 fps=1.4 q=44.4 size=     768KiB time=00:00:03.46 bitrate=1814.9kbits/s speed=0.0113x elapsed=0:05:06.39    \nframe=  421 fps=1.4 q=50.0 size=     768KiB time=00:00:03.49 bitrate=1801.9kbits/s speed=0.0114x elapsed=0:05:06.90    \nframe=  424 fps=1.4 q=50.0 size=     768KiB time=00:00:03.51 bitrate=1789.1kbits/s speed=0.0114x elapsed=0:05:07.41    \nframe=  427 fps=1.4 q=48.5 size=     768KiB time=00:00:03.54 bitrate=1776.5kbits/s speed=0.0115x elapsed=0:05:07.94    \nframe=  430 fps=1.4 q=44.1 size=     768KiB time=00:00:03.56 bitrate=1764.1kbits/s speed=0.0116x elapsed=0:05:08.46    \nframe=  432 fps=1.4 q=50.0 size=     768KiB time=00:00:03.58 bitrate=1755.9kbits/s speed=0.0116x elapsed=0:05:08.98    \nframe=  435 fps=1.4 q=48.5 size=     768KiB time=00:00:03.60 bitrate=1743.7kbits/s speed=0.0117x elapsed=0:05:09.49    \nframe=  438 fps=1.4 q=44.0 size=     768KiB time=00:00:03.63 bitrate=1731.7kbits/s speed=0.0117x elapsed=0:05:10.01    \nframe=  441 fps=1.4 q=50.1 size=     768KiB time=00:00:03.65 bitrate=1719.9kbits/s speed=0.0118x elapsed=0:05:10.52    \nframe=  445 fps=1.4 q=50.0 size=     768KiB time=00:00:03.69 bitrate=1704.3kbits/s speed=0.0119x elapsed=0:05:11.05    \nframe=  448 fps=1.4 q=50.0 size=     768KiB time=00:00:03.71 bitrate=1692.9kbits/s speed=0.0119x elapsed=0:05:11.56    \nframe=  450 fps=1.4 q=44.1 size=     768KiB time=00:00:03.73 bitrate=1685.3kbits/s speed=0.012x elapsed=0:05:12.07    \nframe=  453 fps=1.4 q=50.0 size=     768KiB time=00:00:03.75 bitrate=1674.1kbits/s speed=0.012x elapsed=0:05:12.59    \nframe=  457 fps=1.5 q=50.0 size=     768KiB time=00:00:03.79 bitrate=1659.4kbits/s speed=0.0121x elapsed=0:05:13.10    \nframe=  460 fps=1.5 q=50.0 size=     768KiB time=00:00:03.81 bitrate=1648.5kbits/s speed=0.0122x elapsed=0:05:13.62    \nframe=  463 fps=1.5 q=48.5 size=     768KiB time=00:00:03.84 bitrate=1637.8kbits/s speed=0.0122x elapsed=0:05:14.13    \nframe=  466 fps=1.5 q=44.4 size=     768KiB time=00:00:03.86 bitrate=1627.2kbits/s speed=0.0123x elapsed=0:05:14.65    \nframe=  469 fps=1.5 q=50.0 size=     768KiB time=00:00:03.89 bitrate=1616.7kbits/s speed=0.0123x elapsed=0:05:15.18    \nframe=  472 fps=1.5 q=50.0 size=     768KiB time=00:00:03.91 bitrate=1606.4kbits/s speed=0.0124x elapsed=0:05:15.70    \nframe=  474 fps=1.5 q=44.4 size=     768KiB time=00:00:03.93 bitrate=1599.6kbits/s speed=0.0124x elapsed=0:05:16.21    \nframe=  477 fps=1.5 q=49.9 size=     768KiB time=00:00:03.95 bitrate=1589.5kbits/s speed=0.0125x elapsed=0:05:16.73    \nframe=  481 fps=1.5 q=50.0 size=     768KiB time=00:00:03.99 bitrate=1576.2kbits/s speed=0.0126x elapsed=0:05:17.25    \nframe=  484 fps=1.5 q=50.0 size=     768KiB time=00:00:04.01 bitrate=1566.4kbits/s speed=0.0126x elapsed=0:05:17.76    \nframe=  486 fps=1.5 q=44.6 size=     768KiB time=00:00:04.03 bitrate=1560.0kbits/s speed=0.0127x elapsed=0:05:18.28    \nframe=  489 fps=1.5 q=50.0 size=     768KiB time=00:00:04.05 bitrate=1550.3kbits/s speed=0.0127x elapsed=0:05:18.79    \nframe=  492 fps=1.5 q=49.9 size=    1024KiB time=00:00:04.08 bitrate=2054.4kbits/s speed=0.0128x elapsed=0:05:19.31    \nframe=  495 fps=1.5 q=48.3 size=    1024KiB time=00:00:04.10 bitrate=2041.9kbits/s speed=0.0128x elapsed=0:05:19.84    \nframe=  497 fps=1.6 q=50.0 size=    1024KiB time=00:00:04.12 bitrate=2033.7kbits/s speed=0.0129x elapsed=0:05:20.35    \nframe=  501 fps=1.6 q=50.0 size=    1024KiB time=00:00:04.15 bitrate=2017.4kbits/s speed=0.013x elapsed=0:05:20.88    \nframe=  505 fps=1.6 q=49.9 size=    1024KiB time=00:00:04.19 bitrate=2001.3kbits/s speed=0.013x elapsed=0:05:21.38    \nframe=  507 fps=1.6 q=48.3 size=    1024KiB time=00:00:04.20 bitrate=1993.4kbits/s speed=0.0131x elapsed=0:05:21.90    \nframe=  510 fps=1.6 q=44.2 size=    1024KiB time=00:00:04.23 bitrate=1981.6kbits/s speed=0.0131x elapsed=0:05:22.41    \nframe=  513 fps=1.6 q=49.9 size=    1024KiB time=00:00:04.25 bitrate=1970.0kbits/s speed=0.0132x elapsed=0:05:22.95    \nframe=  516 fps=1.6 q=50.0 size=    1024KiB time=00:00:04.28 bitrate=1958.5kbits/s speed=0.0132x elapsed=0:05:23.46    \nframe=  519 fps=1.6 q=48.1 size=    1024KiB time=00:00:04.30 bitrate=1947.1kbits/s speed=0.0133x elapsed=0:05:23.97    \nframe=  523 fps=1.6 q=48.3 size=    1024KiB time=00:00:04.34 bitrate=1932.2kbits/s speed=0.0134x elapsed=0:05:24.50    \nframe=  527 fps=1.6 q=48.1 size=    1024KiB time=00:00:04.37 bitrate=1917.5kbits/s speed=0.0135x elapsed=0:05:25.03    \nframe=  531 fps=1.6 q=47.9 size=    1024KiB time=00:00:04.40 bitrate=1903.0kbits/s speed=0.0135x elapsed=0:05:25.54    \nframe=  535 fps=1.6 q=48.3 size=    1024KiB time=00:00:04.44 bitrate=1888.7kbits/s speed=0.0136x elapsed=0:05:26.06    \nframe=  539 fps=1.7 q=48.2 size=    1024KiB time=00:00:04.47 bitrate=1874.6kbits/s speed=0.0137x elapsed=0:05:26.57    \nframe=  543 fps=1.7 q=48.5 size=    1024KiB time=00:00:04.50 bitrate=1860.8kbits/s speed=0.0138x elapsed=0:05:27.09    \nframe=  548 fps=1.7 q=50.0 size=    1024KiB time=00:00:04.55 bitrate=1843.7kbits/s speed=0.0139x elapsed=0:05:27.61    \nframe=  552 fps=1.7 q=50.0 size=    1024KiB time=00:00:04.58 bitrate=1830.3kbits/s speed=0.014x elapsed=0:05:28.11    \nframe=  556 fps=1.7 q=50.0 size=    1024KiB time=00:00:04.61 bitrate=1817.1kbits/s speed=0.014x elapsed=0:05:28.64    \nframe=  561 fps=1.7 q=51.0 size=    1024KiB time=00:00:04.65 bitrate=1800.9kbits/s speed=0.0142x elapsed=0:05:29.15    \nframe=  566 fps=1.7 q=51.0 size=    1024KiB time=00:00:04.70 bitrate=1784.9kbits/s speed=0.0143x elapsed=0:05:29.67    \nframe=  571 fps=1.7 q=44.6 size=    1024KiB time=00:00:04.74 bitrate=1769.2kbits/s speed=0.0144x elapsed=0:05:30.18    \nframe=  575 fps=1.7 q=44.9 size=    1024KiB time=00:00:04.77 bitrate=1756.9kbits/s speed=0.0144x elapsed=0:05:30.69    \nframe=  580 fps=1.8 q=48.1 size=    1024KiB time=00:00:04.81 bitrate=1741.7kbits/s speed=0.0145x elapsed=0:05:31.21    \nframe=  585 fps=1.8 q=48.7 size=    1024KiB time=00:00:04.85 bitrate=1726.7kbits/s speed=0.0146x elapsed=0:05:31.72    \nframe=  589 fps=1.8 q=46.6 size=    1024KiB time=00:00:04.89 bitrate=1714.9kbits/s speed=0.0147x elapsed=0:05:32.25    \nframe=  594 fps=1.8 q=48.4 size=    1024KiB time=00:00:04.93 bitrate=1700.5kbits/s speed=0.0148x elapsed=0:05:32.75    \n[mp4 @ 00000213b687b780] Starting second pass: moving the moov atom to the beginning of the file\n[out#0/mp4 @ 00000213b687b640] video:1254KiB audio:0KiB subtitle:0KiB other streams:0KiB global headers:2KiB muxing overhead: 0.868102%\nframe=  600 fps=1.8 q=51.0 Lsize=    1265KiB time=00:00:04.98 bitrate=2079.3kbits/s speed=0.015x elapsed=0:05:33.18    \nx265 [info]: frame I:      3, Avg QP:44.24  kb/s: 9990.72 \nx265 [info]: frame P:    147, Avg QP:44.13  kb/s: 6386.93 \nx265 [info]: frame B:    450, Avg QP:49.01  kb/s: 581.22  \nx265 [info]: Weighted P-Frames: Y:0.0% UV:0.0%\n\nencoded 600 frames in 333.08s (1.80 fps), 2050.67 kb/s, Avg QP:47.79\n",
  "seconds": 333.3494219779968,
  "probe_out": {}
}